G04 Layer_Color=65535*
%FSLAX25Y25*%
%MOIN*%
G70*
G01*
G75*
%ADD10C,0.00787*%
%ADD11C,0.00984*%
%ADD12C,0.01000*%
%ADD13C,0.00394*%
%ADD14C,0.01181*%
%ADD15C,0.02362*%
%ADD16C,0.01500*%
%ADD17C,0.01969*%
%ADD18C,0.01200*%
%ADD19C,0.00500*%
%ADD20C,0.00800*%
%ADD21C,0.00700*%
%ADD22C,0.00600*%
%ADD23R,0.62992X0.38200*%
%ADD24R,0.19500X0.07000*%
%ADD25R,0.08100X0.36500*%
%ADD26R,0.07100X0.03600*%
%ADD27R,0.70600X0.17800*%
G36*
X352578Y811310D02*
X352656D01*
X352754Y811300D01*
X352851Y811281D01*
X352968Y811271D01*
X353212Y811212D01*
X353486Y811134D01*
X353759Y811037D01*
X353895Y810968D01*
X354032Y810890D01*
X354042D01*
X354061Y810871D01*
X354100Y810851D01*
X354149Y810812D01*
X354208Y810773D01*
X354276Y810715D01*
X354432Y810588D01*
X354608Y810422D01*
X354793Y810217D01*
X354959Y809983D01*
X355116Y809709D01*
Y809700D01*
X355135Y809670D01*
X355155Y809631D01*
X355174Y809573D01*
X355203Y809504D01*
X355233Y809416D01*
X355272Y809319D01*
X355311Y809212D01*
X355340Y809085D01*
X355379Y808958D01*
X355438Y808665D01*
X355477Y808343D01*
X355496Y807992D01*
Y807982D01*
Y807952D01*
Y807894D01*
X355486Y807826D01*
Y807738D01*
X355477Y807640D01*
X355467Y807533D01*
X355447Y807406D01*
X355399Y807133D01*
X355330Y806840D01*
X355233Y806537D01*
X355096Y806244D01*
Y806235D01*
X355077Y806215D01*
X355057Y806176D01*
X355028Y806118D01*
X354979Y806059D01*
X354930Y805981D01*
X354813Y805815D01*
X354657Y805630D01*
X354462Y805434D01*
X354237Y805249D01*
X353983Y805083D01*
X353974D01*
X353954Y805064D01*
X353915Y805044D01*
X353856Y805025D01*
X353788Y804995D01*
X353710Y804956D01*
X353622Y804927D01*
X353515Y804888D01*
X353290Y804819D01*
X353027Y804751D01*
X352734Y804712D01*
X352432Y804693D01*
X352344D01*
X352275Y804702D01*
X352197D01*
X352109Y804712D01*
X352002Y804732D01*
X351885Y804751D01*
X351641Y804800D01*
X351368Y804878D01*
X351085Y804985D01*
X350948Y805044D01*
X350811Y805122D01*
X350802Y805132D01*
X350782Y805142D01*
X350743Y805171D01*
X350694Y805200D01*
X350636Y805249D01*
X350567Y805298D01*
X350411Y805434D01*
X350236Y805610D01*
X350050Y805805D01*
X349884Y806049D01*
X349728Y806313D01*
Y806323D01*
X349709Y806352D01*
X349699Y806391D01*
X349669Y806449D01*
X349640Y806518D01*
X349611Y806596D01*
X349582Y806693D01*
X349552Y806801D01*
X349513Y806918D01*
X349484Y807035D01*
X349425Y807308D01*
X349386Y807601D01*
X349367Y807913D01*
Y807933D01*
Y807982D01*
X349377Y808070D01*
Y808177D01*
X349396Y808314D01*
X349416Y808470D01*
X349435Y808636D01*
X349474Y808831D01*
X349523Y809026D01*
X349572Y809231D01*
X349640Y809436D01*
X349728Y809641D01*
X349826Y809846D01*
X349933Y810051D01*
X350070Y810236D01*
X350216Y810412D01*
X350226Y810422D01*
X350255Y810451D01*
X350304Y810500D01*
X350372Y810558D01*
X350460Y810627D01*
X350558Y810695D01*
X350675Y810783D01*
X350811Y810871D01*
X350968Y810949D01*
X351133Y811037D01*
X351319Y811105D01*
X351514Y811183D01*
X351719Y811232D01*
X351943Y811281D01*
X352187Y811310D01*
X352432Y811320D01*
X352519D01*
X352578Y811310D01*
D02*
G37*
G36*
X380443Y811232D02*
X380560Y811212D01*
X380697Y811193D01*
X380853Y811154D01*
X381009Y811095D01*
X381155Y811027D01*
X381175Y811017D01*
X381224Y810988D01*
X381292Y810939D01*
X381389Y810880D01*
X381487Y810793D01*
X381594Y810685D01*
X381702Y810568D01*
X381799Y810431D01*
X381809Y810412D01*
X381838Y810363D01*
X381887Y810275D01*
X381946Y810168D01*
X382004Y810031D01*
X382073Y809865D01*
X382141Y809680D01*
X382200Y809475D01*
Y809465D01*
X382209Y809446D01*
Y809416D01*
X382219Y809368D01*
X382239Y809319D01*
X382248Y809251D01*
X382258Y809163D01*
X382278Y809075D01*
X382287Y808967D01*
X382297Y808860D01*
X382317Y808733D01*
X382326Y808597D01*
X382336Y808450D01*
Y808304D01*
X382346Y807962D01*
Y807952D01*
Y807913D01*
Y807855D01*
Y807777D01*
X382336Y807679D01*
Y807572D01*
X382326Y807445D01*
X382317Y807308D01*
X382287Y807016D01*
X382248Y806713D01*
X382190Y806410D01*
X382151Y806274D01*
X382112Y806137D01*
Y806127D01*
X382102Y806108D01*
X382092Y806069D01*
X382073Y806020D01*
X382043Y805961D01*
X382014Y805903D01*
X381936Y805747D01*
X381838Y805571D01*
X381721Y805395D01*
X381585Y805220D01*
X381419Y805064D01*
X381409D01*
X381399Y805044D01*
X381370Y805034D01*
X381341Y805005D01*
X381233Y804946D01*
X381106Y804878D01*
X380931Y804810D01*
X380735Y804751D01*
X380511Y804712D01*
X380257Y804693D01*
X380169D01*
X380101Y804702D01*
X380023Y804712D01*
X379935Y804732D01*
X379838Y804751D01*
X379730Y804771D01*
X379496Y804849D01*
X379369Y804907D01*
X379252Y804966D01*
X379125Y805044D01*
X379008Y805132D01*
X378901Y805229D01*
X378793Y805347D01*
X378783Y805356D01*
X378764Y805386D01*
X378735Y805434D01*
X378696Y805503D01*
X378647Y805591D01*
X378598Y805698D01*
X378539Y805825D01*
X378481Y805981D01*
X378422Y806147D01*
X378364Y806342D01*
X378315Y806557D01*
X378266Y806791D01*
X378227Y807055D01*
X378198Y807328D01*
X378178Y807640D01*
X378169Y807962D01*
Y807972D01*
Y808011D01*
Y808070D01*
Y808148D01*
X378178Y808245D01*
Y808353D01*
X378188Y808479D01*
X378198Y808616D01*
X378227Y808909D01*
X378266Y809212D01*
X378315Y809514D01*
X378354Y809651D01*
X378393Y809787D01*
Y809797D01*
X378403Y809817D01*
X378422Y809856D01*
X378442Y809904D01*
X378461Y809963D01*
X378491Y810031D01*
X378569Y810188D01*
X378666Y810363D01*
X378783Y810539D01*
X378920Y810705D01*
X379086Y810861D01*
X379096D01*
X379106Y810880D01*
X379135Y810900D01*
X379174Y810919D01*
X379272Y810978D01*
X379408Y811056D01*
X379574Y811125D01*
X379779Y811183D01*
X380003Y811222D01*
X380257Y811242D01*
X380345D01*
X380443Y811232D01*
D02*
G37*
G36*
X370234Y804800D02*
X369365D01*
X366876Y811212D01*
X367804D01*
X369463Y806557D01*
Y806547D01*
X369473Y806528D01*
X369482Y806498D01*
X369502Y806459D01*
X369531Y806352D01*
X369580Y806215D01*
X369638Y806049D01*
X369697Y805874D01*
X369804Y805503D01*
Y805513D01*
X369814Y805522D01*
X369824Y805552D01*
X369834Y805591D01*
X369863Y805698D01*
X369902Y805835D01*
X369951Y805991D01*
X370009Y806166D01*
X370078Y806362D01*
X370146Y806557D01*
X371883Y811212D01*
X372742D01*
X370234Y804800D01*
D02*
G37*
G36*
X330306Y807504D02*
Y807494D01*
Y807465D01*
Y807416D01*
Y807347D01*
X330296Y807259D01*
Y807172D01*
X330286Y807064D01*
X330276Y806947D01*
X330247Y806703D01*
X330208Y806449D01*
X330159Y806196D01*
X330081Y805971D01*
Y805961D01*
X330071Y805942D01*
X330062Y805913D01*
X330042Y805874D01*
X329983Y805776D01*
X329905Y805639D01*
X329798Y805493D01*
X329661Y805337D01*
X329486Y805190D01*
X329291Y805044D01*
X329281D01*
X329261Y805025D01*
X329232Y805015D01*
X329183Y804985D01*
X329134Y804966D01*
X329066Y804937D01*
X328978Y804898D01*
X328890Y804868D01*
X328793Y804839D01*
X328676Y804800D01*
X328559Y804771D01*
X328422Y804751D01*
X328129Y804712D01*
X327797Y804693D01*
X327709D01*
X327651Y804702D01*
X327573D01*
X327485Y804712D01*
X327387Y804722D01*
X327280Y804732D01*
X327046Y804771D01*
X326802Y804819D01*
X326548Y804898D01*
X326324Y804995D01*
X326314D01*
X326294Y805015D01*
X326275Y805025D01*
X326236Y805054D01*
X326128Y805122D01*
X326011Y805229D01*
X325875Y805356D01*
X325748Y805503D01*
X325621Y805688D01*
X325513Y805893D01*
Y805903D01*
X325504Y805922D01*
X325494Y805952D01*
X325474Y806001D01*
X325455Y806059D01*
X325435Y806137D01*
X325416Y806225D01*
X325396Y806323D01*
X325367Y806430D01*
X325347Y806547D01*
X325328Y806684D01*
X325308Y806820D01*
X325289Y806977D01*
X325279Y807142D01*
X325269Y807318D01*
Y807504D01*
Y811212D01*
X326119D01*
Y807504D01*
Y807494D01*
Y807465D01*
Y807425D01*
Y807367D01*
Y807299D01*
X326128Y807220D01*
X326138Y807035D01*
X326158Y806840D01*
X326177Y806635D01*
X326216Y806440D01*
X326236Y806352D01*
X326265Y806274D01*
X326275Y806254D01*
X326294Y806205D01*
X326333Y806137D01*
X326392Y806049D01*
X326460Y805952D01*
X326558Y805844D01*
X326665Y805747D01*
X326802Y805659D01*
X326821Y805649D01*
X326870Y805630D01*
X326948Y805591D01*
X327056Y805561D01*
X327192Y805522D01*
X327348Y805483D01*
X327524Y805464D01*
X327719Y805454D01*
X327807D01*
X327875Y805464D01*
X327953D01*
X328041Y805473D01*
X328237Y805503D01*
X328461Y805561D01*
X328676Y805630D01*
X328881Y805737D01*
X328978Y805795D01*
X329056Y805874D01*
Y805883D01*
X329076Y805893D01*
X329095Y805922D01*
X329115Y805961D01*
X329154Y806010D01*
X329183Y806069D01*
X329222Y806147D01*
X329261Y806235D01*
X329291Y806342D01*
X329330Y806459D01*
X329369Y806586D01*
X329398Y806742D01*
X329417Y806908D01*
X329437Y807084D01*
X329456Y807289D01*
Y807504D01*
Y811212D01*
X330306D01*
Y807504D01*
D02*
G37*
G36*
X346205Y811203D02*
X346273D01*
X346439Y811193D01*
X346624Y811164D01*
X346819Y811134D01*
X347015Y811085D01*
X347190Y811017D01*
X347200D01*
X347210Y811007D01*
X347269Y810978D01*
X347347Y810929D01*
X347444Y810871D01*
X347561Y810783D01*
X347678Y810676D01*
X347786Y810558D01*
X347893Y810412D01*
X347903Y810392D01*
X347932Y810344D01*
X347971Y810256D01*
X348020Y810149D01*
X348069Y810022D01*
X348108Y809885D01*
X348137Y809729D01*
X348147Y809563D01*
Y809543D01*
Y809495D01*
X348137Y809416D01*
X348118Y809309D01*
X348088Y809192D01*
X348049Y809065D01*
X348001Y808919D01*
X347922Y808782D01*
X347913Y808763D01*
X347883Y808724D01*
X347825Y808655D01*
X347757Y808577D01*
X347659Y808479D01*
X347542Y808392D01*
X347405Y808294D01*
X347239Y808206D01*
X347249D01*
X347269Y808197D01*
X347298Y808187D01*
X347337Y808177D01*
X347444Y808128D01*
X347571Y808070D01*
X347717Y807982D01*
X347864Y807884D01*
X348010Y807767D01*
X348137Y807621D01*
X348147Y807601D01*
X348186Y807552D01*
X348235Y807465D01*
X348303Y807347D01*
X348362Y807201D01*
X348410Y807045D01*
X348449Y806859D01*
X348459Y806654D01*
Y806635D01*
Y806576D01*
X348449Y806489D01*
X348440Y806381D01*
X348410Y806254D01*
X348381Y806108D01*
X348332Y805961D01*
X348264Y805815D01*
X348254Y805795D01*
X348235Y805747D01*
X348186Y805678D01*
X348137Y805591D01*
X348069Y805493D01*
X347991Y805395D01*
X347893Y805298D01*
X347796Y805210D01*
X347786Y805200D01*
X347747Y805181D01*
X347688Y805142D01*
X347600Y805093D01*
X347503Y805044D01*
X347376Y804995D01*
X347239Y804946D01*
X347093Y804898D01*
X347073D01*
X347015Y804878D01*
X346927Y804868D01*
X346810Y804849D01*
X346654Y804829D01*
X346478Y804819D01*
X346283Y804800D01*
X343618D01*
Y811212D01*
X346136D01*
X346205Y811203D01*
D02*
G37*
G36*
X323766Y804800D02*
X322917D01*
Y811212D01*
X323766D01*
Y804800D01*
D02*
G37*
G36*
X385420Y811232D02*
X385537Y811212D01*
X385674Y811193D01*
X385830Y811154D01*
X385986Y811095D01*
X386133Y811027D01*
X386152Y811017D01*
X386201Y810988D01*
X386269Y810939D01*
X386367Y810880D01*
X386465Y810793D01*
X386572Y810685D01*
X386679Y810568D01*
X386777Y810431D01*
X386787Y810412D01*
X386816Y810363D01*
X386865Y810275D01*
X386923Y810168D01*
X386982Y810031D01*
X387050Y809865D01*
X387119Y809680D01*
X387177Y809475D01*
Y809465D01*
X387187Y809446D01*
Y809416D01*
X387197Y809368D01*
X387216Y809319D01*
X387226Y809251D01*
X387236Y809163D01*
X387255Y809075D01*
X387265Y808967D01*
X387275Y808860D01*
X387294Y808733D01*
X387304Y808597D01*
X387314Y808450D01*
Y808304D01*
X387323Y807962D01*
Y807952D01*
Y807913D01*
Y807855D01*
Y807777D01*
X387314Y807679D01*
Y807572D01*
X387304Y807445D01*
X387294Y807308D01*
X387265Y807016D01*
X387226Y806713D01*
X387167Y806410D01*
X387128Y806274D01*
X387089Y806137D01*
Y806127D01*
X387080Y806108D01*
X387070Y806069D01*
X387050Y806020D01*
X387021Y805961D01*
X386992Y805903D01*
X386914Y805747D01*
X386816Y805571D01*
X386699Y805395D01*
X386562Y805220D01*
X386396Y805064D01*
X386387D01*
X386377Y805044D01*
X386348Y805034D01*
X386318Y805005D01*
X386211Y804946D01*
X386084Y804878D01*
X385908Y804810D01*
X385713Y804751D01*
X385489Y804712D01*
X385235Y804693D01*
X385147D01*
X385079Y804702D01*
X385001Y804712D01*
X384913Y804732D01*
X384815Y804751D01*
X384708Y804771D01*
X384474Y804849D01*
X384347Y804907D01*
X384230Y804966D01*
X384103Y805044D01*
X383986Y805132D01*
X383878Y805229D01*
X383771Y805347D01*
X383761Y805356D01*
X383742Y805386D01*
X383712Y805434D01*
X383673Y805503D01*
X383625Y805591D01*
X383576Y805698D01*
X383517Y805825D01*
X383459Y805981D01*
X383400Y806147D01*
X383341Y806342D01*
X383293Y806557D01*
X383244Y806791D01*
X383205Y807055D01*
X383175Y807328D01*
X383156Y807640D01*
X383146Y807962D01*
Y807972D01*
Y808011D01*
Y808070D01*
Y808148D01*
X383156Y808245D01*
Y808353D01*
X383166Y808479D01*
X383175Y808616D01*
X383205Y808909D01*
X383244Y809212D01*
X383293Y809514D01*
X383332Y809651D01*
X383371Y809787D01*
Y809797D01*
X383381Y809817D01*
X383400Y809856D01*
X383419Y809904D01*
X383439Y809963D01*
X383468Y810031D01*
X383546Y810188D01*
X383644Y810363D01*
X383761Y810539D01*
X383898Y810705D01*
X384064Y810861D01*
X384073D01*
X384083Y810880D01*
X384113Y810900D01*
X384152Y810919D01*
X384249Y810978D01*
X384386Y811056D01*
X384552Y811125D01*
X384757Y811183D01*
X384981Y811222D01*
X385235Y811242D01*
X385323D01*
X385420Y811232D01*
D02*
G37*
G36*
X376158Y804800D02*
X375367D01*
Y809817D01*
X375358Y809807D01*
X375319Y809768D01*
X375250Y809719D01*
X375163Y809651D01*
X375055Y809563D01*
X374928Y809475D01*
X374782Y809368D01*
X374616Y809270D01*
X374606D01*
X374597Y809260D01*
X374538Y809221D01*
X374450Y809173D01*
X374343Y809114D01*
X374216Y809046D01*
X374079Y808987D01*
X373933Y808919D01*
X373796Y808860D01*
Y809631D01*
X373806D01*
X373825Y809641D01*
X373865Y809661D01*
X373903Y809690D01*
X373962Y809719D01*
X374030Y809748D01*
X374187Y809836D01*
X374362Y809943D01*
X374557Y810070D01*
X374753Y810217D01*
X374938Y810373D01*
X374948Y810383D01*
X374958Y810392D01*
X375016Y810451D01*
X375104Y810539D01*
X375211Y810646D01*
X375328Y810783D01*
X375446Y810929D01*
X375553Y811085D01*
X375641Y811242D01*
X376158D01*
Y804800D01*
D02*
G37*
G36*
X548221Y843860D02*
X545372Y840893D01*
X548329D01*
Y839800D01*
X543517D01*
Y840854D01*
X546328Y843792D01*
X543790D01*
Y844875D01*
X548221D01*
Y843860D01*
D02*
G37*
G36*
X339861Y811310D02*
X339939D01*
X340105Y811290D01*
X340290Y811261D01*
X340505Y811222D01*
X340720Y811164D01*
X340934Y811085D01*
X340944D01*
X340964Y811076D01*
X340993Y811066D01*
X341032Y811046D01*
X341129Y810998D01*
X341256Y810919D01*
X341403Y810832D01*
X341549Y810724D01*
X341695Y810607D01*
X341822Y810461D01*
X341832Y810441D01*
X341871Y810392D01*
X341930Y810305D01*
X342008Y810178D01*
X342086Y810031D01*
X342164Y809856D01*
X342242Y809651D01*
X342310Y809416D01*
X341539Y809202D01*
Y809212D01*
X341530Y809221D01*
X341520Y809280D01*
X341481Y809368D01*
X341442Y809485D01*
X341393Y809602D01*
X341334Y809729D01*
X341266Y809856D01*
X341188Y809973D01*
X341178Y809983D01*
X341149Y810022D01*
X341100Y810070D01*
X341032Y810139D01*
X340944Y810207D01*
X340837Y810285D01*
X340720Y810353D01*
X340573Y810422D01*
X340554Y810431D01*
X340505Y810451D01*
X340417Y810480D01*
X340310Y810510D01*
X340183Y810539D01*
X340036Y810568D01*
X339870Y810588D01*
X339695Y810597D01*
X339597D01*
X339490Y810588D01*
X339353Y810578D01*
X339197Y810549D01*
X339021Y810519D01*
X338855Y810471D01*
X338689Y810412D01*
X338670Y810402D01*
X338621Y810383D01*
X338543Y810344D01*
X338445Y810285D01*
X338338Y810217D01*
X338221Y810139D01*
X338114Y810051D01*
X338006Y809943D01*
X337997Y809934D01*
X337967Y809895D01*
X337918Y809836D01*
X337860Y809758D01*
X337791Y809661D01*
X337723Y809553D01*
X337665Y809436D01*
X337606Y809309D01*
Y809299D01*
X337596Y809280D01*
X337587Y809251D01*
X337567Y809202D01*
X337547Y809153D01*
X337528Y809085D01*
X337489Y808928D01*
X337440Y808733D01*
X337401Y808519D01*
X337372Y808275D01*
X337362Y808021D01*
Y808011D01*
Y807982D01*
Y807943D01*
X337372Y807874D01*
Y807806D01*
X337382Y807718D01*
X337391Y807621D01*
X337401Y807523D01*
X337430Y807289D01*
X337489Y807045D01*
X337557Y806811D01*
X337655Y806576D01*
Y806567D01*
X337665Y806547D01*
X337684Y806518D01*
X337713Y806479D01*
X337782Y806381D01*
X337870Y806254D01*
X337987Y806118D01*
X338133Y805971D01*
X338309Y805835D01*
X338504Y805717D01*
X338514D01*
X338533Y805708D01*
X338563Y805688D01*
X338602Y805678D01*
X338650Y805659D01*
X338719Y805630D01*
X338865Y805581D01*
X339051Y805532D01*
X339246Y805483D01*
X339470Y805454D01*
X339704Y805444D01*
X339802D01*
X339909Y805454D01*
X340046Y805473D01*
X340202Y805493D01*
X340388Y805532D01*
X340583Y805581D01*
X340778Y805649D01*
X340788D01*
X340798Y805659D01*
X340827Y805669D01*
X340866Y805688D01*
X340964Y805727D01*
X341081Y805786D01*
X341208Y805854D01*
X341334Y805932D01*
X341461Y806020D01*
X341578Y806108D01*
Y807318D01*
X339695D01*
Y808070D01*
X342408D01*
Y805688D01*
X342398Y805678D01*
X342379Y805669D01*
X342349Y805639D01*
X342301Y805610D01*
X342242Y805561D01*
X342174Y805522D01*
X342008Y805405D01*
X341813Y805288D01*
X341598Y805161D01*
X341354Y805044D01*
X341110Y804937D01*
X341100D01*
X341081Y804927D01*
X341042Y804917D01*
X340993Y804898D01*
X340934Y804878D01*
X340866Y804859D01*
X340778Y804839D01*
X340690Y804819D01*
X340485Y804771D01*
X340261Y804732D01*
X340007Y804702D01*
X339753Y804693D01*
X339665D01*
X339597Y804702D01*
X339509D01*
X339412Y804712D01*
X339304Y804722D01*
X339187Y804741D01*
X338914Y804790D01*
X338631Y804859D01*
X338328Y804956D01*
X338035Y805093D01*
X338026Y805103D01*
X338006Y805112D01*
X337957Y805132D01*
X337909Y805171D01*
X337840Y805210D01*
X337772Y805259D01*
X337606Y805386D01*
X337411Y805552D01*
X337225Y805756D01*
X337040Y805991D01*
X336874Y806254D01*
Y806264D01*
X336855Y806293D01*
X336835Y806332D01*
X336816Y806391D01*
X336786Y806459D01*
X336747Y806547D01*
X336718Y806645D01*
X336679Y806762D01*
X336640Y806879D01*
X336611Y807016D01*
X336542Y807308D01*
X336503Y807630D01*
X336484Y807972D01*
Y807982D01*
Y808011D01*
Y808060D01*
X336493Y808128D01*
Y808216D01*
X336503Y808314D01*
X336513Y808421D01*
X336532Y808538D01*
X336581Y808811D01*
X336650Y809104D01*
X336747Y809416D01*
X336874Y809719D01*
Y809729D01*
X336894Y809758D01*
X336913Y809797D01*
X336942Y809856D01*
X336991Y809924D01*
X337040Y809992D01*
X337157Y810178D01*
X337323Y810373D01*
X337509Y810568D01*
X337743Y810754D01*
X337860Y810841D01*
X337997Y810919D01*
X338006D01*
X338026Y810939D01*
X338075Y810959D01*
X338123Y810978D01*
X338192Y811017D01*
X338280Y811046D01*
X338377Y811085D01*
X338485Y811125D01*
X338602Y811154D01*
X338728Y811193D01*
X339021Y811261D01*
X339334Y811300D01*
X339685Y811320D01*
X339802D01*
X339861Y811310D01*
D02*
G37*
G36*
X546460Y858918D02*
Y856800D01*
X544889D01*
Y858918D01*
X542917Y861875D01*
X544654D01*
X545670Y860167D01*
X546694Y861875D01*
X548432D01*
X546460Y858918D01*
D02*
G37*
G36*
X562204Y842516D02*
X563932Y839900D01*
X562175D01*
X561169Y841530D01*
X560164Y839900D01*
X558417D01*
X560164Y842545D01*
X558573Y844975D01*
X560301D01*
X561199Y843414D01*
X562077Y844975D01*
X563785D01*
X562204Y842516D01*
D02*
G37*
G36*
X321346Y804800D02*
X320477D01*
X317110Y809836D01*
Y804800D01*
X316300D01*
Y811212D01*
X317159D01*
X320536Y806176D01*
Y811212D01*
X321346D01*
Y804800D01*
D02*
G37*
G36*
X366945Y803024D02*
X361733D01*
Y803590D01*
X366945D01*
Y803024D01*
D02*
G37*
G36*
X359400Y808157D02*
X361811Y804800D01*
X360767D01*
X359146Y807084D01*
X359137Y807094D01*
X359127Y807113D01*
X359098Y807152D01*
X359059Y807211D01*
X358980Y807328D01*
X358883Y807474D01*
X358873Y807465D01*
X358844Y807425D01*
X358815Y807367D01*
X358766Y807289D01*
X358658Y807142D01*
X358610Y807074D01*
X358571Y807016D01*
X356950Y804800D01*
X355935D01*
X358414Y808118D01*
X356228Y811212D01*
X357233D01*
X358405Y809563D01*
Y809553D01*
X358424Y809543D01*
X358463Y809475D01*
X358531Y809387D01*
X358600Y809280D01*
X358688Y809153D01*
X358775Y809016D01*
X358844Y808899D01*
X358912Y808782D01*
X358922Y808802D01*
X358951Y808841D01*
X359000Y808909D01*
X359059Y808997D01*
X359127Y809104D01*
X359215Y809231D01*
X359312Y809358D01*
X359420Y809495D01*
X360708Y811212D01*
X361635D01*
X359400Y808157D01*
D02*
G37*
G36*
X336103Y803024D02*
X330891D01*
Y803590D01*
X336103D01*
Y803024D01*
D02*
G37*
%LPC*%
G36*
X352432Y810588D02*
X352344D01*
X352285Y810578D01*
X352207Y810568D01*
X352109Y810558D01*
X352012Y810539D01*
X351905Y810510D01*
X351660Y810431D01*
X351534Y810383D01*
X351407Y810324D01*
X351270Y810256D01*
X351143Y810168D01*
X351016Y810070D01*
X350889Y809963D01*
X350880Y809953D01*
X350860Y809934D01*
X350831Y809895D01*
X350792Y809846D01*
X350743Y809778D01*
X350684Y809690D01*
X350626Y809592D01*
X350567Y809475D01*
X350509Y809338D01*
X350450Y809192D01*
X350392Y809026D01*
X350343Y808831D01*
X350304Y808626D01*
X350275Y808411D01*
X350255Y808167D01*
X350245Y807904D01*
Y807894D01*
Y807855D01*
Y807796D01*
X350255Y807708D01*
X350265Y807611D01*
X350275Y807504D01*
X350294Y807377D01*
X350323Y807240D01*
X350392Y806947D01*
X350450Y806801D01*
X350509Y806645D01*
X350577Y806498D01*
X350655Y806352D01*
X350753Y806205D01*
X350860Y806079D01*
X350870Y806069D01*
X350889Y806049D01*
X350928Y806020D01*
X350977Y805971D01*
X351036Y805922D01*
X351104Y805874D01*
X351192Y805805D01*
X351290Y805747D01*
X351397Y805688D01*
X351514Y805630D01*
X351641Y805571D01*
X351787Y805522D01*
X351934Y805473D01*
X352090Y805444D01*
X352246Y805425D01*
X352422Y805415D01*
X352510D01*
X352578Y805425D01*
X352666Y805434D01*
X352754Y805454D01*
X352861Y805473D01*
X352978Y805503D01*
X353222Y805581D01*
X353359Y805630D01*
X353486Y805698D01*
X353622Y805776D01*
X353749Y805864D01*
X353876Y805961D01*
X353993Y806079D01*
X354003Y806088D01*
X354022Y806108D01*
X354052Y806147D01*
X354091Y806205D01*
X354139Y806274D01*
X354188Y806362D01*
X354247Y806459D01*
X354305Y806567D01*
X354364Y806703D01*
X354423Y806840D01*
X354471Y806996D01*
X354520Y807172D01*
X354559Y807357D01*
X354589Y807552D01*
X354608Y807767D01*
X354618Y807992D01*
Y808001D01*
Y808031D01*
Y808070D01*
Y808118D01*
X354608Y808187D01*
Y808275D01*
X354589Y808460D01*
X354549Y808665D01*
X354501Y808899D01*
X354432Y809133D01*
X354345Y809358D01*
Y809368D01*
X354335Y809387D01*
X354315Y809416D01*
X354296Y809455D01*
X354237Y809563D01*
X354149Y809690D01*
X354042Y809836D01*
X353905Y809992D01*
X353749Y810139D01*
X353573Y810266D01*
X353564D01*
X353554Y810275D01*
X353525Y810295D01*
X353486Y810314D01*
X353378Y810363D01*
X353242Y810431D01*
X353076Y810490D01*
X352881Y810539D01*
X352666Y810578D01*
X352432Y810588D01*
D02*
G37*
G36*
X380247D02*
X380199D01*
X380160Y810578D01*
X380062Y810568D01*
X379935Y810529D01*
X379799Y810471D01*
X379652Y810392D01*
X379506Y810275D01*
X379437Y810197D01*
X379379Y810119D01*
Y810109D01*
X379359Y810090D01*
X379340Y810051D01*
X379320Y810002D01*
X379291Y809934D01*
X379252Y809856D01*
X379213Y809748D01*
X379184Y809631D01*
X379145Y809495D01*
X379106Y809338D01*
X379076Y809163D01*
X379037Y808958D01*
X379018Y808743D01*
X378998Y808509D01*
X378979Y808245D01*
Y807962D01*
Y807943D01*
Y807894D01*
Y807816D01*
X378989Y807708D01*
Y807582D01*
X378998Y807435D01*
X379008Y807269D01*
X379028Y807103D01*
X379067Y806752D01*
X379135Y806401D01*
X379174Y806244D01*
X379223Y806098D01*
X379281Y805961D01*
X379340Y805854D01*
Y805844D01*
X379359Y805835D01*
X379408Y805776D01*
X379486Y805688D01*
X379594Y805600D01*
X379730Y805503D01*
X379886Y805415D01*
X380062Y805356D01*
X380160Y805347D01*
X380257Y805337D01*
X380306D01*
X380345Y805347D01*
X380443Y805366D01*
X380570Y805405D01*
X380716Y805464D01*
X380862Y805552D01*
X380941Y805610D01*
X381019Y805688D01*
X381097Y805766D01*
X381165Y805854D01*
Y805864D01*
X381185Y805883D01*
X381204Y805913D01*
X381224Y805961D01*
X381253Y806020D01*
X381282Y806108D01*
X381311Y806205D01*
X381350Y806313D01*
X381389Y806449D01*
X381419Y806596D01*
X381448Y806771D01*
X381477Y806967D01*
X381507Y807181D01*
X381516Y807416D01*
X381536Y807679D01*
Y807962D01*
Y807982D01*
Y808031D01*
Y808109D01*
X381526Y808216D01*
Y808343D01*
X381516Y808489D01*
X381507Y808645D01*
X381487Y808821D01*
X381448Y809173D01*
X381380Y809514D01*
X381341Y809680D01*
X381292Y809826D01*
X381233Y809953D01*
X381165Y810061D01*
Y810070D01*
X381145Y810080D01*
X381097Y810139D01*
X381019Y810227D01*
X380911Y810324D01*
X380775Y810422D01*
X380618Y810510D01*
X380443Y810568D01*
X380345Y810578D01*
X380247Y810588D01*
D02*
G37*
G36*
X346156Y807757D02*
X344467D01*
Y805552D01*
X346283D01*
X346478Y805561D01*
X346566Y805571D01*
X346634Y805581D01*
X346644D01*
X346683Y805591D01*
X346741Y805600D01*
X346810Y805620D01*
X346966Y805669D01*
X347122Y805747D01*
X347132Y805756D01*
X347161Y805766D01*
X347190Y805795D01*
X347239Y805844D01*
X347298Y805893D01*
X347347Y805952D01*
X347405Y806030D01*
X347454Y806108D01*
X347464Y806118D01*
X347473Y806147D01*
X347493Y806196D01*
X347522Y806264D01*
X347542Y806342D01*
X347561Y806440D01*
X347571Y806537D01*
X347581Y806654D01*
Y806674D01*
Y806713D01*
X347571Y806781D01*
X347561Y806859D01*
X347532Y806957D01*
X347503Y807064D01*
X347454Y807172D01*
X347386Y807269D01*
X347376Y807279D01*
X347356Y807318D01*
X347307Y807357D01*
X347249Y807416D01*
X347181Y807484D01*
X347093Y807543D01*
X346995Y807601D01*
X346878Y807650D01*
X346859Y807660D01*
X346819Y807669D01*
X346741Y807689D01*
X346644Y807708D01*
X346507Y807728D01*
X346351Y807738D01*
X346156Y807757D01*
D02*
G37*
G36*
X345980Y810461D02*
X344467D01*
Y808509D01*
X346039D01*
X346156Y808519D01*
X346292Y808528D01*
X346429Y808538D01*
X346546Y808558D01*
X346654Y808577D01*
X346663Y808587D01*
X346702Y808597D01*
X346761Y808616D01*
X346839Y808655D01*
X346917Y808694D01*
X346995Y808753D01*
X347073Y808821D01*
X347142Y808899D01*
X347151Y808909D01*
X347171Y808938D01*
X347190Y808987D01*
X347229Y809055D01*
X347259Y809133D01*
X347278Y809231D01*
X347298Y809338D01*
X347307Y809465D01*
Y809475D01*
Y809524D01*
X347298Y809582D01*
X347288Y809661D01*
X347269Y809748D01*
X347239Y809836D01*
X347200Y809934D01*
X347151Y810031D01*
X347142Y810041D01*
X347122Y810070D01*
X347083Y810109D01*
X347034Y810168D01*
X346976Y810217D01*
X346898Y810275D01*
X346810Y810324D01*
X346712Y810363D01*
X346702D01*
X346654Y810383D01*
X346585Y810392D01*
X346488Y810412D01*
X346351Y810431D01*
X346185Y810441D01*
X345980Y810461D01*
D02*
G37*
G36*
X385225Y810588D02*
X385176D01*
X385137Y810578D01*
X385040Y810568D01*
X384913Y810529D01*
X384776Y810471D01*
X384630Y810392D01*
X384483Y810275D01*
X384415Y810197D01*
X384356Y810119D01*
Y810109D01*
X384337Y810090D01*
X384317Y810051D01*
X384298Y810002D01*
X384269Y809934D01*
X384230Y809856D01*
X384191Y809748D01*
X384161Y809631D01*
X384122Y809495D01*
X384083Y809338D01*
X384054Y809163D01*
X384015Y808958D01*
X383995Y808743D01*
X383976Y808509D01*
X383956Y808245D01*
Y807962D01*
Y807943D01*
Y807894D01*
Y807816D01*
X383966Y807708D01*
Y807582D01*
X383976Y807435D01*
X383986Y807269D01*
X384005Y807103D01*
X384044Y806752D01*
X384113Y806401D01*
X384152Y806244D01*
X384200Y806098D01*
X384259Y805961D01*
X384317Y805854D01*
Y805844D01*
X384337Y805835D01*
X384386Y805776D01*
X384464Y805688D01*
X384571Y805600D01*
X384708Y805503D01*
X384864Y805415D01*
X385040Y805356D01*
X385137Y805347D01*
X385235Y805337D01*
X385284D01*
X385323Y805347D01*
X385420Y805366D01*
X385547Y805405D01*
X385694Y805464D01*
X385840Y805552D01*
X385918Y805610D01*
X385996Y805688D01*
X386074Y805766D01*
X386143Y805854D01*
Y805864D01*
X386162Y805883D01*
X386182Y805913D01*
X386201Y805961D01*
X386230Y806020D01*
X386260Y806108D01*
X386289Y806205D01*
X386328Y806313D01*
X386367Y806449D01*
X386396Y806596D01*
X386426Y806771D01*
X386455Y806967D01*
X386484Y807181D01*
X386494Y807416D01*
X386513Y807679D01*
Y807962D01*
Y807982D01*
Y808031D01*
Y808109D01*
X386504Y808216D01*
Y808343D01*
X386494Y808489D01*
X386484Y808645D01*
X386465Y808821D01*
X386426Y809173D01*
X386357Y809514D01*
X386318Y809680D01*
X386269Y809826D01*
X386211Y809953D01*
X386143Y810061D01*
Y810070D01*
X386123Y810080D01*
X386074Y810139D01*
X385996Y810227D01*
X385889Y810324D01*
X385752Y810422D01*
X385596Y810510D01*
X385420Y810568D01*
X385323Y810578D01*
X385225Y810588D01*
D02*
G37*
%LPD*%
D10*
X460922Y815700D02*
G03*
X454894Y815700I-3014J0D01*
G01*
Y805700D02*
G03*
X460922Y805700I3014J0D01*
G01*
X355900Y951386D02*
G03*
X355900Y957414I0J3014D01*
G01*
X345900D02*
G03*
X345900Y951386I0J-3014D01*
G01*
X356700Y932478D02*
G03*
X356700Y938506I0J3014D01*
G01*
X346700D02*
G03*
X346700Y932478I0J-3014D01*
G01*
X345257Y912556D02*
G03*
X345257Y915444I0J1444D01*
G01*
X418422Y795332D02*
X424579Y787452D01*
X369418Y744355D02*
X424579Y787452D01*
X363261Y752235D02*
X369418Y744355D01*
X363261Y752235D02*
X418422Y795332D01*
X460908Y805700D02*
Y815700D01*
X454908Y805700D02*
Y815700D01*
X561457Y826257D02*
Y838343D01*
X568543D01*
Y826257D02*
Y838343D01*
X561457Y826257D02*
X568543D01*
X512809Y836109D02*
Y837191D01*
X526391Y836109D02*
Y837191D01*
X512809Y848609D02*
Y849691D01*
X526391Y848609D02*
Y849691D01*
X523635Y836109D02*
X526391D01*
X512809D02*
X515565D01*
X523635Y849691D02*
X526391D01*
X512809D02*
X515565D01*
X591100Y859500D02*
Y889500D01*
X581100D02*
X591100D01*
X581100Y859500D02*
Y889500D01*
Y859500D02*
X591100D01*
X537000Y902800D02*
X537000Y872800D01*
X518667Y876133D02*
X532000D01*
X517000Y877800D02*
X518667Y876133D01*
X517000Y877800D02*
X518667Y879467D01*
X532000Y879467D01*
X518667Y886133D02*
X532000D01*
X517000Y887800D02*
X518667Y886133D01*
X517000Y887800D02*
X518667Y889467D01*
X532000Y889467D01*
X518667Y896133D02*
X532000D01*
X517000Y897800D02*
X518667Y896133D01*
X517000Y897800D02*
X518667Y899467D01*
X532000D01*
Y902800D02*
X537000D01*
X532000Y872800D02*
Y902800D01*
Y872800D02*
X537000D01*
X485853Y909560D02*
Y909757D01*
X492940Y909560D02*
Y909757D01*
X485853Y921568D02*
Y921765D01*
X492940Y921568D02*
Y921765D01*
X485853D02*
X492940D01*
X485853Y909560D02*
X492940D01*
X434153Y909760D02*
Y909957D01*
X441240Y909760D02*
Y909957D01*
X434153Y921768D02*
Y921965D01*
X441240Y921768D02*
Y921965D01*
X434153D02*
X441240D01*
X434153Y909760D02*
X441240D01*
X437594Y831494D02*
X486806D01*
X437594Y880706D02*
X486806D01*
X437594Y831494D02*
Y880706D01*
X486806Y831494D02*
Y880706D01*
X381953Y909660D02*
X389040D01*
X381953Y921865D02*
X389040D01*
Y921668D02*
Y921865D01*
X381953Y921668D02*
Y921865D01*
X389040Y909660D02*
Y909857D01*
X381953Y909660D02*
Y909857D01*
X461439Y987377D02*
Y1004602D01*
X446773D02*
X461439D01*
Y929798D02*
Y947023D01*
X446773Y929798D02*
X461439D01*
X378761Y987377D02*
Y1004602D01*
X393427D01*
X378761Y933735D02*
X382698Y929798D01*
X378761Y933735D02*
Y947023D01*
X382698Y929798D02*
X393427D01*
X345900Y951400D02*
X355900D01*
X345900Y957400D02*
X355900D01*
X346700Y932492D02*
X356700D01*
X346700Y938492D02*
X356700D01*
X318542Y898800D02*
Y928800D01*
Y898800D02*
X342242D01*
X318542Y928800D02*
X342242D01*
Y898800D02*
Y928800D01*
X337621Y947000D02*
Y958600D01*
X320321Y947000D02*
X337621D01*
X320321D02*
Y958600D01*
X337621D01*
X364943Y909669D02*
Y918331D01*
X345257Y915444D02*
Y918331D01*
Y909669D02*
Y912556D01*
X591000Y890800D02*
Y983300D01*
Y990800D01*
X581000D02*
X591000D01*
X581000Y890800D02*
Y990800D01*
Y890800D02*
X591000D01*
D11*
X528655Y836699D02*
G03*
X528655Y836699I-492J0D01*
G01*
X383073Y933877D02*
G03*
X383073Y933877I-492J0D01*
G01*
X344746Y903764D02*
G03*
X344746Y903764I-492J0D01*
G01*
D12*
X520000Y922100D02*
G03*
X508261Y921889I-5620J-13956D01*
G01*
X508417Y900298D02*
G03*
X520100Y900500I5602J13964D01*
G01*
X467300Y922100D02*
G03*
X455561Y921889I-5620J-13956D01*
G01*
X455717Y900298D02*
G03*
X467400Y900500I5602J13964D01*
G01*
X415700Y922100D02*
G03*
X403962Y921889I-5620J-13956D01*
G01*
X404117Y900298D02*
G03*
X415800Y900500I5602J13964D01*
G01*
X357215Y991753D02*
G03*
X343285Y991791I-7034J-24968D01*
G01*
X372515Y991753D02*
G03*
X358585Y991791I-7034J-24968D01*
G01*
X551417Y842300D02*
G03*
X551417Y842300I-6000J0D01*
G01*
X567800Y919100D02*
X572500D01*
X570200Y917200D02*
Y921000D01*
X551000Y910800D02*
X554200D01*
Y916200D01*
X550900D02*
X554200D01*
X550900Y898800D02*
X573700D01*
X550900D02*
Y929800D01*
X573700Y898800D02*
Y929800D01*
X550900D02*
X573700D01*
X550969Y923669D02*
X556969Y929669D01*
X551069Y924969D02*
Y925069D01*
X555569Y929569D01*
X551069Y926069D02*
Y926369D01*
X554269Y929569D01*
X551169Y927469D02*
Y927669D01*
X552969Y929469D01*
X550969Y928769D02*
X551269D01*
X552169Y929669D01*
X570300Y906800D02*
Y910900D01*
X567800Y951100D02*
X572500D01*
X570200Y949200D02*
Y953000D01*
X551000Y942800D02*
X554200D01*
Y948200D01*
X550900D02*
X554200D01*
X550900Y930800D02*
X573700D01*
X550900D02*
Y961800D01*
X573700Y930800D02*
Y961800D01*
X550900D02*
X573700D01*
X550969Y955669D02*
X556969Y961669D01*
X551069Y956969D02*
Y957069D01*
X555569Y961569D01*
X551069Y958069D02*
Y958369D01*
X554269Y961569D01*
X551169Y959469D02*
Y959669D01*
X552969Y961469D01*
X550969Y960769D02*
X551269D01*
X552169Y961669D01*
X570300Y938800D02*
Y942900D01*
X567800Y983100D02*
X572500D01*
X570200Y981200D02*
Y985000D01*
X551000Y974800D02*
X554200D01*
Y980200D01*
X550900D02*
X554200D01*
X550900Y962800D02*
X573700D01*
X550900D02*
Y993800D01*
X573700Y962800D02*
Y993800D01*
X550900D02*
X573700D01*
X550969Y987669D02*
X556969Y993669D01*
X551069Y988969D02*
Y989069D01*
X555569Y993569D01*
X551069Y990069D02*
Y990369D01*
X554269Y993569D01*
X551169Y991469D02*
Y991669D01*
X552969Y993469D01*
X550969Y992769D02*
X551269D01*
X552169Y993669D01*
X570300Y970800D02*
Y974900D01*
X567800Y1015100D02*
X572500D01*
X570200Y1013200D02*
Y1017000D01*
X551000Y1006800D02*
X554200D01*
Y1012200D01*
X550900D02*
X554200D01*
X550900Y994800D02*
X573700D01*
X550900D02*
Y1025800D01*
X573700Y994800D02*
Y1025800D01*
X550900D02*
X573700D01*
X550969Y1019669D02*
X556969Y1025669D01*
X551069Y1020969D02*
Y1021069D01*
X555569Y1025569D01*
X551069Y1022069D02*
Y1022369D01*
X554269Y1025569D01*
X551169Y1023469D02*
Y1023669D01*
X552969Y1025469D01*
X550969Y1024769D02*
X551269D01*
X552169Y1025669D01*
X570300Y1002800D02*
Y1006900D01*
X543800Y1007850D02*
Y1011850D01*
X540800Y1010850D02*
X546800D01*
X540800D02*
X543800Y1007850D01*
X546800Y1010850D01*
X540800Y1007865D02*
X546800D01*
X467557Y1028642D02*
X487243D01*
X467557Y1008957D02*
Y1028642D01*
Y1008957D02*
X487243D01*
Y1028642D01*
X420800Y803900D02*
X424800D01*
X448300Y810800D02*
X452300D01*
X521000Y827100D02*
Y831100D01*
X567800Y887100D02*
X572500D01*
X570200Y885200D02*
Y889000D01*
X551000Y878800D02*
X554200D01*
Y884200D01*
X550900D02*
X554200D01*
X550900Y866800D02*
X573700D01*
X550900D02*
Y897800D01*
X573700Y866800D02*
Y897800D01*
X550900D02*
X573700D01*
X550969Y891669D02*
X556969Y897669D01*
X551069Y892969D02*
Y893069D01*
X555569Y897569D01*
X551069Y894069D02*
Y894369D01*
X554269Y897569D01*
X551169Y895469D02*
Y895669D01*
X552969Y897469D01*
X550969Y896769D02*
X551269D01*
X552169Y897669D01*
X570300Y874800D02*
Y878900D01*
X543700Y912550D02*
Y916550D01*
X540700Y913550D02*
X546700D01*
X543700Y916550D02*
X546700Y913550D01*
X540700D02*
X543700Y916550D01*
X540700Y916535D02*
X546700D01*
X520057Y914400D02*
Y921976D01*
X508154Y914700D02*
Y921836D01*
X520100Y900500D02*
Y908100D01*
X508200Y908000D02*
X508200Y900500D01*
X499900Y915600D02*
X503900D01*
X475300Y915700D02*
X479300D01*
X489800Y902700D02*
Y906700D01*
X467357Y914400D02*
Y921976D01*
X455454Y914700D02*
Y921836D01*
X467400Y900500D02*
Y908100D01*
X455500Y908000D02*
X455500Y900500D01*
X447900Y915500D02*
X451900D01*
X423250Y915700D02*
X427250D01*
X437300Y902700D02*
Y906700D01*
X415757Y914400D02*
Y921976D01*
X403855Y914700D02*
Y921836D01*
X415800Y900500D02*
Y908100D01*
X403900Y908000D02*
X403900Y900500D01*
X371200Y915700D02*
X375200D01*
X395700Y915500D02*
X399700D01*
X386100Y902700D02*
Y906700D01*
X390858Y1028642D02*
X410542D01*
X390858Y1008957D02*
Y1028642D01*
Y1008957D02*
X410542D01*
Y1028642D01*
X336200Y988500D02*
X340200D01*
X343895Y991900D02*
X356100D01*
X343395Y991000D02*
X357200D01*
X343395D02*
X343405Y960600D01*
X357306D01*
Y990895D01*
X357200Y991000D02*
X357306Y990895D01*
X359195Y991900D02*
X371400D01*
X358695Y991000D02*
X372500D01*
X358695D02*
X358705Y960600D01*
X372605D01*
Y990895D01*
X372500Y991000D02*
X372605Y990895D01*
X317700Y827674D02*
X318500D01*
X317700Y889800D02*
X318500D01*
X327300Y846500D02*
X328500D01*
X327300Y847700D02*
X328500Y846500D01*
X327200Y845200D02*
X328500Y846500D01*
X324500D02*
X327300D01*
X320600Y845100D02*
X323400Y842300D01*
X320600Y845100D02*
Y850300D01*
X331600D01*
X323400Y842300D02*
X331600D01*
X331600Y850300D02*
X331600Y842300D01*
X320300Y840300D02*
X378574Y840326D01*
X317700Y827774D02*
Y889800D01*
X386300Y847300D02*
X386300Y827774D01*
X380200Y847300D02*
X386300D01*
X380200D02*
Y889800D01*
X330300Y889800D02*
X367800D01*
X330300Y827674D02*
X367800D01*
X380226Y827774D02*
X386300D01*
X356800Y858800D02*
X380200D01*
X346400Y863800D02*
X380200D01*
X356800Y868800D02*
X380200D01*
X346400Y873800D02*
X380200D01*
X356800Y878800D02*
X380200D01*
X346400Y883800D02*
X380100Y883800D01*
X337900Y878800D02*
X346400Y878800D01*
X337900Y868800D02*
X346400D01*
X337900Y858800D02*
X346400D01*
X346400Y878800D02*
X346400Y883800D01*
X346400Y873800D02*
X346400Y868800D01*
X346400Y863800D02*
X346400Y858800D01*
X339605Y908800D02*
Y918800D01*
Y908800D02*
X342142D01*
X339605Y918800D02*
X342142D01*
X408400Y833200D02*
Y837200D01*
Y868800D02*
Y872800D01*
X543800Y944183D02*
Y948183D01*
X540800Y947183D02*
X546800D01*
X540800D02*
X543800Y944183D01*
X546800Y947183D01*
X540800Y944198D02*
X546800D01*
X543800Y976017D02*
Y980017D01*
X540800Y979017D02*
X546800D01*
X540800D02*
X543800Y976017D01*
X546800Y979017D01*
X540800Y976032D02*
X546800D01*
X545517Y855800D02*
X549417Y851900D01*
X541517D02*
X545517Y855900D01*
X553817Y846200D02*
X557617Y842400D01*
X553817Y838300D02*
X557717Y842200D01*
X545517Y848400D02*
Y855900D01*
X551417Y842300D02*
X557517D01*
D13*
X484475Y921667D02*
G03*
X484475Y921667I-197J0D01*
G01*
X432775Y921867D02*
G03*
X432775Y921867I-197J0D01*
G01*
X380575Y921767D02*
G03*
X380575Y921767I-197J0D01*
G01*
D14*
X436610Y824998D02*
G03*
X436610Y824998I-591J0D01*
G01*
D15*
X442712Y835431D02*
G03*
X442712Y835431I-1181J0D01*
G01*
D16*
X545900Y842300D02*
G03*
X545900Y842300I-283J0D01*
G01*
D17*
X356500Y994000D02*
D03*
X371800D02*
D03*
D18*
X539200Y1000450D02*
X540550Y999100D01*
X547050D01*
X548300Y1000350D01*
X539200Y1020800D02*
X548300D01*
X539200Y1000450D02*
Y1020800D01*
X548300Y1000350D02*
Y1020800D01*
X488450Y1006500D02*
X508350D01*
X488450Y998100D02*
X508350D01*
X488450D02*
Y1006500D01*
X508350Y998200D02*
Y1006500D01*
X546950Y925300D02*
X548300Y923950D01*
X540450Y925300D02*
X546950D01*
X539200Y924050D02*
X540450Y925300D01*
X539200Y903600D02*
X548300D01*
Y923950D01*
X539200Y903600D02*
Y924050D01*
Y936783D02*
X540550Y935433D01*
X547050D01*
X548300Y936683D01*
X539200Y957133D02*
X548300D01*
X539200Y936783D02*
Y957133D01*
X548300Y936683D02*
Y957133D01*
X539200Y968617D02*
X540550Y967267D01*
X547050D01*
X548300Y968517D01*
X539200Y988967D02*
X548300D01*
X539200Y968617D02*
Y988967D01*
X548300Y968517D02*
Y988967D01*
D19*
X532061Y938644D02*
Y992444D01*
X529861Y994644D02*
X532061Y992444D01*
X469069Y994644D02*
X529861D01*
X469069Y938644D02*
Y994644D01*
Y938644D02*
X532061D01*
D20*
X489500Y1010600D02*
X501900D01*
X489500D02*
Y1016600D01*
X501900D01*
Y1010600D02*
Y1016600D01*
X415700Y839500D02*
Y866700D01*
X402200Y839500D02*
X415700D01*
X402200D02*
Y866700D01*
X415700D01*
X419800Y824000D02*
X432200D01*
Y818000D02*
Y824000D01*
X419800Y818000D02*
X432200D01*
X419800D02*
Y824000D01*
Y811100D02*
X432200D01*
X419800D02*
Y817100D01*
X432200D01*
Y811100D02*
Y817100D01*
X419800Y797700D02*
Y810100D01*
X425800D01*
Y797700D02*
Y810100D01*
X419800Y797700D02*
X425800D01*
X426600D02*
Y810100D01*
X432600D01*
Y797700D02*
Y810100D01*
X426600Y797700D02*
X432600D01*
X439400D02*
Y810100D01*
X433400Y797700D02*
X439400D01*
X433400D02*
Y810100D01*
X439400D01*
X462500Y804600D02*
Y817000D01*
X468500D01*
Y804600D02*
Y817000D01*
X462500Y804600D02*
X468500D01*
X456908Y817200D02*
X458908D01*
X457908Y816200D02*
Y818200D01*
X447300Y804600D02*
Y817000D01*
X453300D01*
Y804600D02*
Y817000D01*
X447300Y804600D02*
X453300D01*
X520000Y865700D02*
X526000D01*
X520000Y853300D02*
Y865700D01*
Y853300D02*
X526000D01*
Y865700D01*
X513200D02*
X519200D01*
X513200Y853300D02*
Y865700D01*
Y853300D02*
X519200D01*
Y865700D01*
X531000Y836300D02*
X537000D01*
Y848700D01*
X531000D02*
X537000D01*
X531000Y836300D02*
Y848700D01*
X514800Y832100D02*
X527200D01*
Y826100D02*
Y832100D01*
X514800Y826100D02*
X527200D01*
X514800D02*
Y832100D01*
X534200Y933200D02*
X546600D01*
Y927200D02*
Y933200D01*
X534200Y927200D02*
X546600D01*
X534200D02*
Y933200D01*
X509700Y929000D02*
Y935000D01*
Y929000D02*
X522100D01*
Y935000D01*
X509700D02*
X522100D01*
X524350Y918300D02*
X526350D01*
X529850Y909300D02*
X530350D01*
X533850Y918300D02*
X535850D01*
X524350Y913800D02*
Y918300D01*
X535850Y913800D02*
Y918300D01*
X504900Y909400D02*
Y921800D01*
X498900Y909400D02*
X504900D01*
X498900D02*
Y921800D01*
X504900D01*
X474300Y909500D02*
Y921900D01*
X480300D01*
Y909500D02*
Y921900D01*
X474300Y909500D02*
X480300D01*
X483600Y901700D02*
Y907700D01*
Y901700D02*
X496000D01*
Y907700D01*
X483600D02*
X496000D01*
X470800D02*
X483200D01*
Y901700D02*
Y907700D01*
X470800Y901700D02*
X483200D01*
X470800D02*
Y907700D01*
X446900Y921700D02*
X452900D01*
X446900Y909300D02*
Y921700D01*
Y909300D02*
X452900D01*
Y921700D01*
X422250Y909500D02*
X428250D01*
Y921900D01*
X422250D02*
X428250D01*
X422250Y909500D02*
Y921900D01*
X431100Y901700D02*
Y907700D01*
Y901700D02*
X443500D01*
Y907700D01*
X431100D02*
X443500D01*
X434800Y894800D02*
X447200D01*
X434800D02*
Y900800D01*
X447200D01*
Y894800D02*
Y900800D01*
X422300Y894800D02*
Y907200D01*
X428300D01*
Y894800D02*
Y907200D01*
X422300Y894800D02*
X428300D01*
X370200Y909500D02*
X376200D01*
Y921900D01*
X370200D02*
X376200D01*
X370200Y909500D02*
Y921900D01*
X404800Y888400D02*
X417200D01*
X404800D02*
Y894400D01*
X417200D01*
Y888400D02*
Y894400D01*
X394700Y921700D02*
X400700D01*
X394700Y909300D02*
Y921700D01*
Y909300D02*
X400700D01*
Y921700D01*
X379900Y901700D02*
Y907700D01*
Y901700D02*
X392300D01*
Y907700D01*
X379900D02*
X392300D01*
X370300Y898000D02*
Y910400D01*
X376300D01*
Y898000D02*
Y910400D01*
X370300Y898000D02*
X376300D01*
X335200Y982300D02*
Y994700D01*
X341200D01*
Y982300D02*
Y994700D01*
X335200Y982300D02*
X341200D01*
X360400Y951500D02*
X372800D01*
X360400D02*
Y957500D01*
X372800D01*
Y951500D02*
Y957500D01*
X357400Y953400D02*
Y955400D01*
X356400Y954400D02*
X358400D01*
X360400Y944600D02*
Y950600D01*
Y944600D02*
X372800D01*
Y950600D01*
X360400D02*
X372800D01*
X366800Y943700D02*
X372800D01*
X366800Y931300D02*
Y943700D01*
Y931300D02*
X372800D01*
Y943700D01*
X358200Y934492D02*
Y936492D01*
X357200Y935492D02*
X359200D01*
X345000Y944900D02*
X357400D01*
Y938900D02*
Y944900D01*
X345000Y938900D02*
X357400D01*
X345000D02*
Y944900D01*
X326100Y932500D02*
Y944900D01*
X320100Y932500D02*
X326100D01*
X320100D02*
Y944900D01*
X326100D01*
X327300Y932500D02*
X339700D01*
X327300D02*
Y938500D01*
X339700D01*
Y932500D02*
Y938500D01*
X327300Y938900D02*
X339700D01*
X327300D02*
Y944900D01*
X339700D01*
Y938900D02*
Y944900D01*
X346100Y893200D02*
Y901200D01*
X337900Y893200D02*
X346100Y893200D01*
X335100Y901200D02*
X346100D01*
X335100Y896000D02*
Y901200D01*
Y896000D02*
X337900Y893200D01*
X339000Y897400D02*
X341800D01*
X341700Y896100D02*
X343000Y897400D01*
X341800Y898600D02*
X343000Y897400D01*
X402200Y838200D02*
X414600D01*
Y832200D02*
Y838200D01*
X402200Y832200D02*
X414600D01*
X402200D02*
Y838200D01*
Y873800D02*
X414600D01*
Y867800D02*
Y873800D01*
X402200Y867800D02*
X414600D01*
X402200D02*
Y873800D01*
X322150Y982500D02*
X324150D01*
X327650Y973500D02*
X328150D01*
X331650Y982500D02*
X333650D01*
X322150Y978000D02*
Y982500D01*
X333650Y978000D02*
Y982500D01*
X322000Y963000D02*
X334400D01*
X322000D02*
Y969000D01*
X334400D01*
Y963000D02*
Y969000D01*
X316986Y800070D02*
Y800356D01*
X317271Y800927D01*
X317557Y801213D01*
X318128Y801499D01*
X319271D01*
X319842Y801213D01*
X320128Y800927D01*
X320413Y800356D01*
Y799785D01*
X320128Y799214D01*
X319556Y798356D01*
X316700Y795500D01*
X320699D01*
X323756Y801499D02*
X322899Y801213D01*
X322327Y800356D01*
X322042Y798928D01*
Y798071D01*
X322327Y796643D01*
X322899Y795786D01*
X323756Y795500D01*
X324327D01*
X325184Y795786D01*
X325755Y796643D01*
X326041Y798071D01*
Y798928D01*
X325755Y800356D01*
X325184Y801213D01*
X324327Y801499D01*
X323756D01*
X327383Y800356D02*
X327955Y800642D01*
X328812Y801499D01*
Y795500D01*
X335210Y800642D02*
X334925Y801213D01*
X334068Y801499D01*
X333496D01*
X332639Y801213D01*
X332068Y800356D01*
X331783Y798928D01*
Y797500D01*
X332068Y796357D01*
X332639Y795786D01*
X333496Y795500D01*
X333782D01*
X334639Y795786D01*
X335210Y796357D01*
X335496Y797214D01*
Y797500D01*
X335210Y798356D01*
X334639Y798928D01*
X333782Y799214D01*
X333496D01*
X332639Y798928D01*
X332068Y798356D01*
X331783Y797500D01*
X336810Y800356D02*
X337381Y800642D01*
X338238Y801499D01*
Y795500D01*
X342923Y801499D02*
X342066Y801213D01*
X341495Y800356D01*
X341209Y798928D01*
Y798071D01*
X341495Y796643D01*
X342066Y795786D01*
X342923Y795500D01*
X343494D01*
X344351Y795786D01*
X344922Y796643D01*
X345208Y798071D01*
Y798928D01*
X344922Y800356D01*
X344351Y801213D01*
X343494Y801499D01*
X342923D01*
X346836Y800070D02*
Y800356D01*
X347122Y800927D01*
X347408Y801213D01*
X347979Y801499D01*
X349122D01*
X349693Y801213D01*
X349979Y800927D01*
X350264Y800356D01*
Y799785D01*
X349979Y799214D01*
X349407Y798356D01*
X346551Y795500D01*
X350550D01*
X355320Y800642D02*
X355035Y801213D01*
X354178Y801499D01*
X353606D01*
X352749Y801213D01*
X352178Y800356D01*
X351892Y798928D01*
Y797500D01*
X352178Y796357D01*
X352749Y795786D01*
X353606Y795500D01*
X353892D01*
X354749Y795786D01*
X355320Y796357D01*
X355606Y797214D01*
Y797500D01*
X355320Y798356D01*
X354749Y798928D01*
X353892Y799214D01*
X353606D01*
X352749Y798928D01*
X352178Y798356D01*
X351892Y797500D01*
D21*
X357100Y746404D02*
X358814D01*
X359385Y746595D01*
X359576Y746785D01*
X359766Y747166D01*
Y747737D01*
X359576Y748118D01*
X359385Y748309D01*
X358814Y748499D01*
X357100D01*
Y744500D01*
X363327Y748499D02*
X361423Y744500D01*
X360661Y748499D02*
X363327D01*
X558900Y913204D02*
X560614D01*
X561185Y913395D01*
X561376Y913585D01*
X561566Y913966D01*
Y914537D01*
X561376Y914918D01*
X561185Y915109D01*
X560614Y915299D01*
X558900D01*
Y911300D01*
X564746Y915299D02*
X562842D01*
X562652Y913585D01*
X562842Y913776D01*
X563413Y913966D01*
X563985D01*
X564556Y913776D01*
X564937Y913395D01*
X565127Y912823D01*
Y912443D01*
X564937Y911871D01*
X564556Y911490D01*
X563985Y911300D01*
X563413D01*
X562842Y911490D01*
X562652Y911681D01*
X562461Y912062D01*
X561366Y947428D02*
X560985Y947809D01*
X560414Y947999D01*
X559652D01*
X559081Y947809D01*
X558700Y947428D01*
Y947047D01*
X558890Y946666D01*
X559081Y946476D01*
X559462Y946285D01*
X560604Y945904D01*
X560985Y945714D01*
X561176Y945523D01*
X561366Y945143D01*
Y944571D01*
X560985Y944190D01*
X560414Y944000D01*
X559652D01*
X559081Y944190D01*
X558700Y944571D01*
X562642Y947999D02*
X564737D01*
X563594Y946476D01*
X564165D01*
X564546Y946285D01*
X564737Y946095D01*
X564927Y945523D01*
Y945143D01*
X564737Y944571D01*
X564356Y944190D01*
X563785Y944000D01*
X563213D01*
X562642Y944190D01*
X562452Y944381D01*
X562261Y944762D01*
X562366Y980928D02*
X561985Y981309D01*
X561414Y981499D01*
X560652D01*
X560081Y981309D01*
X559700Y980928D01*
Y980547D01*
X559890Y980166D01*
X560081Y979976D01*
X560462Y979785D01*
X561604Y979404D01*
X561985Y979214D01*
X562176Y979023D01*
X562366Y978643D01*
Y978071D01*
X561985Y977690D01*
X561414Y977500D01*
X560652D01*
X560081Y977690D01*
X559700Y978071D01*
X563452Y980547D02*
Y980737D01*
X563642Y981118D01*
X563832Y981309D01*
X564213Y981499D01*
X564975D01*
X565356Y981309D01*
X565546Y981118D01*
X565737Y980737D01*
Y980357D01*
X565546Y979976D01*
X565166Y979404D01*
X563261Y977500D01*
X565927D01*
X562966Y1012828D02*
X562585Y1013209D01*
X562014Y1013399D01*
X561252D01*
X560681Y1013209D01*
X560300Y1012828D01*
Y1012447D01*
X560490Y1012066D01*
X560681Y1011876D01*
X561062Y1011685D01*
X562204Y1011304D01*
X562585Y1011114D01*
X562776Y1010923D01*
X562966Y1010543D01*
Y1009971D01*
X562585Y1009590D01*
X562014Y1009400D01*
X561252D01*
X560681Y1009590D01*
X560300Y1009971D01*
X563861Y1012637D02*
X564242Y1012828D01*
X564813Y1013399D01*
Y1009400D01*
X540600Y1026299D02*
X542124Y1022300D01*
X543647Y1026299D02*
X542124Y1022300D01*
X544161Y1025537D02*
X544542Y1025728D01*
X545113Y1026299D01*
Y1022300D01*
X514400Y992399D02*
Y989543D01*
X514590Y988971D01*
X514971Y988590D01*
X515543Y988400D01*
X515924D01*
X516495Y988590D01*
X516876Y988971D01*
X517066Y989543D01*
Y992399D01*
X520075D02*
X518171Y989733D01*
X521027D01*
X520075Y992399D02*
Y988400D01*
X474147Y1017300D02*
X472623Y1021299D01*
X471100Y1017300D01*
X471671Y1018633D02*
X473576D01*
X475080Y1021299D02*
Y1017300D01*
Y1021299D02*
X477746Y1017300D01*
Y1021299D02*
Y1017300D01*
X480184Y1021299D02*
Y1017300D01*
X478851Y1021299D02*
X481517D01*
X481993Y1020537D02*
X482374Y1020728D01*
X482945Y1021299D01*
Y1017300D01*
X504100Y1015499D02*
Y1011500D01*
X506385D01*
X506823Y1014737D02*
X507204Y1014928D01*
X507775Y1015499D01*
Y1011500D01*
X495200Y1003799D02*
Y999800D01*
Y1003799D02*
X496914D01*
X497485Y1003609D01*
X497676Y1003418D01*
X497866Y1003037D01*
Y1002656D01*
X497676Y1002276D01*
X497485Y1002085D01*
X496914Y1001895D01*
X495200D01*
X496533D02*
X497866Y999800D01*
X501046Y1003799D02*
X499142D01*
X498952Y1002085D01*
X499142Y1002276D01*
X499713Y1002466D01*
X500285D01*
X500856Y1002276D01*
X501237Y1001895D01*
X501427Y1001324D01*
Y1000943D01*
X501237Y1000371D01*
X500856Y999990D01*
X500285Y999800D01*
X499713D01*
X499142Y999990D01*
X498952Y1000181D01*
X498761Y1000562D01*
X406601Y851000D02*
X408505Y852524D01*
X410600D01*
X406601Y854047D02*
X408505Y852524D01*
X407363Y854561D02*
X407172Y854942D01*
X406601Y855513D01*
X410600D01*
X421200Y822799D02*
Y818800D01*
Y822799D02*
X422914D01*
X423485Y822609D01*
X423676Y822418D01*
X423866Y822037D01*
Y821657D01*
X423676Y821276D01*
X423485Y821085D01*
X422914Y820895D01*
X421200D01*
X422533D02*
X423866Y818800D01*
X424761Y822037D02*
X425142Y822228D01*
X425713Y822799D01*
Y818800D01*
X430360Y822799D02*
X428456Y818800D01*
X427694Y822799D02*
X430360D01*
X421400Y816099D02*
Y812100D01*
Y816099D02*
X423114D01*
X423685Y815909D01*
X423876Y815718D01*
X424066Y815337D01*
Y814956D01*
X423876Y814576D01*
X423685Y814385D01*
X423114Y814195D01*
X421400D01*
X422733D02*
X424066Y812100D01*
X424961Y815337D02*
X425342Y815528D01*
X425913Y816099D01*
Y812100D01*
X430179Y815528D02*
X429989Y815909D01*
X429417Y816099D01*
X429037D01*
X428465Y815909D01*
X428084Y815337D01*
X427894Y814385D01*
Y813433D01*
X428084Y812671D01*
X428465Y812290D01*
X429037Y812100D01*
X429227D01*
X429798Y812290D01*
X430179Y812671D01*
X430370Y813243D01*
Y813433D01*
X430179Y814004D01*
X429798Y814385D01*
X429227Y814576D01*
X429037D01*
X428465Y814385D01*
X428084Y814004D01*
X427894Y813433D01*
X415253Y802456D02*
X414872Y802266D01*
X414491Y801885D01*
X414301Y801504D01*
Y800743D01*
X414491Y800362D01*
X414872Y799981D01*
X415253Y799790D01*
X415824Y799600D01*
X416777D01*
X417348Y799790D01*
X417729Y799981D01*
X418110Y800362D01*
X418300Y800743D01*
Y801504D01*
X418110Y801885D01*
X417729Y802266D01*
X417348Y802456D01*
X415253Y803771D02*
X415063D01*
X414682Y803961D01*
X414491Y804151D01*
X414301Y804532D01*
Y805294D01*
X414491Y805675D01*
X414682Y805865D01*
X415063Y806056D01*
X415444D01*
X415824Y805865D01*
X416396Y805484D01*
X418300Y803580D01*
Y806246D01*
X414301Y807522D02*
Y809617D01*
X415824Y808474D01*
Y809046D01*
X416015Y809426D01*
X416205Y809617D01*
X416777Y809807D01*
X417157D01*
X417729Y809617D01*
X418110Y809236D01*
X418300Y808665D01*
Y808093D01*
X418110Y807522D01*
X417919Y807332D01*
X417538Y807141D01*
X427501Y799500D02*
X431500D01*
X427501D02*
Y801214D01*
X427691Y801785D01*
X427882Y801976D01*
X428263Y802166D01*
X428644D01*
X429024Y801976D01*
X429215Y801785D01*
X429405Y801214D01*
Y799500D01*
Y800833D02*
X431500Y802166D01*
X428453Y803252D02*
X428263D01*
X427882Y803442D01*
X427691Y803632D01*
X427501Y804013D01*
Y804775D01*
X427691Y805156D01*
X427882Y805346D01*
X428263Y805537D01*
X428644D01*
X429024Y805346D01*
X429596Y804965D01*
X431500Y803061D01*
Y805727D01*
X428263Y806622D02*
X428072Y807003D01*
X427501Y807574D01*
X431500D01*
X434401Y799600D02*
X438400D01*
X434401D02*
Y801314D01*
X434591Y801885D01*
X434782Y802076D01*
X435163Y802266D01*
X435543D01*
X435924Y802076D01*
X436115Y801885D01*
X436305Y801314D01*
Y799600D01*
Y800933D02*
X438400Y802266D01*
X435353Y803352D02*
X435163D01*
X434782Y803542D01*
X434591Y803732D01*
X434401Y804113D01*
Y804875D01*
X434591Y805256D01*
X434782Y805446D01*
X435163Y805637D01*
X435543D01*
X435924Y805446D01*
X436496Y805066D01*
X438400Y803161D01*
Y805827D01*
X434401Y808627D02*
X437067Y806722D01*
Y809579D01*
X434401Y808627D02*
X438400D01*
X463401Y806900D02*
X467400D01*
X463401D02*
Y808614D01*
X463591Y809185D01*
X463782Y809376D01*
X464163Y809566D01*
X464543D01*
X464924Y809376D01*
X465115Y809185D01*
X465305Y808614D01*
Y806900D01*
Y808233D02*
X467400Y809566D01*
X464163Y810461D02*
X463972Y810842D01*
X463401Y811413D01*
X467400D01*
X464734Y815870D02*
X465305Y815679D01*
X465686Y815298D01*
X465876Y814727D01*
Y814536D01*
X465686Y813965D01*
X465305Y813584D01*
X464734Y813394D01*
X464543D01*
X463972Y813584D01*
X463591Y813965D01*
X463401Y814536D01*
Y814727D01*
X463591Y815298D01*
X463972Y815679D01*
X464734Y815870D01*
X465686D01*
X466638Y815679D01*
X467210Y815298D01*
X467400Y814727D01*
Y814346D01*
X467210Y813775D01*
X466829Y813584D01*
X455100Y826899D02*
Y822900D01*
X457385D01*
X460299Y826899D02*
X457823D01*
Y822900D01*
X460299D01*
X457823Y824995D02*
X459347D01*
X460965Y826899D02*
Y822900D01*
Y826899D02*
X462298D01*
X462870Y826709D01*
X463251Y826328D01*
X463441Y825947D01*
X463631Y825376D01*
Y824424D01*
X463441Y823852D01*
X463251Y823471D01*
X462870Y823090D01*
X462298Y822900D01*
X460965D01*
X464717Y825947D02*
Y826137D01*
X464907Y826518D01*
X465098Y826709D01*
X465479Y826899D01*
X466241D01*
X466621Y826709D01*
X466812Y826518D01*
X467002Y826137D01*
Y825756D01*
X466812Y825376D01*
X466431Y824804D01*
X464527Y822900D01*
X467193D01*
X449153Y821356D02*
X448772Y821166D01*
X448391Y820785D01*
X448201Y820404D01*
Y819643D01*
X448391Y819262D01*
X448772Y818881D01*
X449153Y818690D01*
X449724Y818500D01*
X450676D01*
X451248Y818690D01*
X451629Y818881D01*
X452010Y819262D01*
X452200Y819643D01*
Y820404D01*
X452010Y820785D01*
X451629Y821166D01*
X451248Y821356D01*
X448201Y822861D02*
Y824956D01*
X449724Y823813D01*
Y824384D01*
X449915Y824765D01*
X450105Y824956D01*
X450676Y825146D01*
X451057D01*
X451629Y824956D01*
X452010Y824575D01*
X452200Y824004D01*
Y823432D01*
X452010Y822861D01*
X451819Y822670D01*
X451438Y822480D01*
X449534Y828517D02*
X450105Y828327D01*
X450486Y827946D01*
X450676Y827374D01*
Y827184D01*
X450486Y826613D01*
X450105Y826232D01*
X449534Y826041D01*
X449343D01*
X448772Y826232D01*
X448391Y826613D01*
X448201Y827184D01*
Y827374D01*
X448391Y827946D01*
X448772Y828327D01*
X449534Y828517D01*
X450486D01*
X451438Y828327D01*
X452010Y827946D01*
X452200Y827374D01*
Y826993D01*
X452010Y826422D01*
X451629Y826232D01*
X520901Y854700D02*
X524900D01*
X520901D02*
Y856414D01*
X521091Y856985D01*
X521282Y857176D01*
X521663Y857366D01*
X522044D01*
X522424Y857176D01*
X522615Y856985D01*
X522805Y856414D01*
Y854700D01*
Y856033D02*
X524900Y857366D01*
X520901Y860166D02*
X523567Y858261D01*
Y861118D01*
X520901Y860166D02*
X524900D01*
X521853Y862013D02*
X521663D01*
X521282Y862203D01*
X521091Y862394D01*
X520901Y862774D01*
Y863536D01*
X521091Y863917D01*
X521282Y864108D01*
X521663Y864298D01*
X522044D01*
X522424Y864108D01*
X522996Y863727D01*
X524900Y861822D01*
Y864488D01*
X514201Y854800D02*
X518200D01*
X514201D02*
Y856514D01*
X514391Y857085D01*
X514582Y857276D01*
X514963Y857466D01*
X515344D01*
X515724Y857276D01*
X515915Y857085D01*
X516105Y856514D01*
Y854800D01*
Y856133D02*
X518200Y857466D01*
X514201Y860266D02*
X516867Y858361D01*
Y861218D01*
X514201Y860266D02*
X518200D01*
X514201Y862303D02*
Y864398D01*
X515724Y863255D01*
Y863827D01*
X515915Y864207D01*
X516105Y864398D01*
X516677Y864588D01*
X517057D01*
X517629Y864398D01*
X518010Y864017D01*
X518200Y863446D01*
Y862875D01*
X518010Y862303D01*
X517819Y862113D01*
X517438Y861922D01*
X532101Y838300D02*
X536100D01*
X532101D02*
Y840014D01*
X532291Y840585D01*
X532482Y840776D01*
X532863Y840966D01*
X533244D01*
X533624Y840776D01*
X533815Y840585D01*
X534005Y840014D01*
Y838300D01*
Y839633D02*
X536100Y840966D01*
X532101Y843766D02*
X534767Y841861D01*
Y844718D01*
X532101Y843766D02*
X536100D01*
X532863Y845422D02*
X532672Y845803D01*
X532101Y846375D01*
X536100D01*
X570600Y834599D02*
Y830600D01*
X573266Y834599D02*
X570600Y831933D01*
X571552Y832885D02*
X573266Y830600D01*
X576637Y834599D02*
X574161D01*
Y830600D01*
X576637D01*
X574161Y832695D02*
X575685D01*
X577303Y834599D02*
X578827Y832695D01*
Y830600D01*
X580350Y834599D02*
X578827Y832695D01*
X580864Y833837D02*
X581245Y834028D01*
X581817Y834599D01*
Y830600D01*
X516500Y844599D02*
Y841743D01*
X516690Y841171D01*
X517071Y840790D01*
X517643Y840600D01*
X518023D01*
X518595Y840790D01*
X518976Y841171D01*
X519166Y841743D01*
Y844599D01*
X520461Y843647D02*
Y843837D01*
X520651Y844218D01*
X520842Y844409D01*
X521223Y844599D01*
X521984D01*
X522365Y844409D01*
X522556Y844218D01*
X522746Y843837D01*
Y843456D01*
X522556Y843076D01*
X522175Y842504D01*
X520271Y840600D01*
X522937D01*
X508856Y830647D02*
X508666Y831028D01*
X508285Y831409D01*
X507904Y831599D01*
X507143D01*
X506762Y831409D01*
X506381Y831028D01*
X506190Y830647D01*
X506000Y830076D01*
Y829123D01*
X506190Y828552D01*
X506381Y828171D01*
X506762Y827790D01*
X507143Y827600D01*
X507904D01*
X508285Y827790D01*
X508666Y828171D01*
X508856Y828552D01*
X510171Y830647D02*
Y830837D01*
X510361Y831218D01*
X510551Y831409D01*
X510932Y831599D01*
X511694D01*
X512075Y831409D01*
X512265Y831218D01*
X512456Y830837D01*
Y830457D01*
X512265Y830076D01*
X511884Y829504D01*
X509980Y827600D01*
X512646D01*
X583900Y874104D02*
X585614D01*
X586185Y874295D01*
X586376Y874485D01*
X586566Y874866D01*
Y875437D01*
X586376Y875818D01*
X586185Y876009D01*
X585614Y876199D01*
X583900D01*
Y872200D01*
X587461Y875437D02*
X587842Y875628D01*
X588413Y876199D01*
Y872200D01*
X559300Y882504D02*
X561014D01*
X561585Y882695D01*
X561776Y882885D01*
X561966Y883266D01*
Y883837D01*
X561776Y884218D01*
X561585Y884409D01*
X561014Y884599D01*
X559300D01*
Y880600D01*
X564766Y884599D02*
X562861Y881933D01*
X565718D01*
X564766Y884599D02*
Y880600D01*
X536700Y932299D02*
Y928300D01*
Y932299D02*
X538414D01*
X538985Y932109D01*
X539176Y931918D01*
X539366Y931537D01*
Y931157D01*
X539176Y930776D01*
X538985Y930585D01*
X538414Y930395D01*
X536700D01*
X538033D02*
X539366Y928300D01*
X540642Y932299D02*
X542737D01*
X541594Y930776D01*
X542166D01*
X542546Y930585D01*
X542737Y930395D01*
X542927Y929823D01*
Y929443D01*
X542737Y928871D01*
X542356Y928490D01*
X541785Y928300D01*
X541213D01*
X540642Y928490D01*
X540452Y928681D01*
X540261Y929062D01*
X543822Y931537D02*
X544203Y931728D01*
X544774Y932299D01*
Y928300D01*
X540900Y922499D02*
Y918500D01*
Y922499D02*
X542233D01*
X542804Y922309D01*
X543185Y921928D01*
X543376Y921547D01*
X543566Y920976D01*
Y920024D01*
X543376Y919452D01*
X543185Y919071D01*
X542804Y918690D01*
X542233Y918500D01*
X540900D01*
X544652Y921547D02*
Y921737D01*
X544842Y922118D01*
X545032Y922309D01*
X545413Y922499D01*
X546175D01*
X546556Y922309D01*
X546746Y922118D01*
X546937Y921737D01*
Y921356D01*
X546746Y920976D01*
X546365Y920404D01*
X544461Y918500D01*
X547127D01*
X513857Y912947D02*
X513666Y913328D01*
X513285Y913709D01*
X512904Y913899D01*
X512143D01*
X511762Y913709D01*
X511381Y913328D01*
X511190Y912947D01*
X511000Y912376D01*
Y911423D01*
X511190Y910852D01*
X511381Y910471D01*
X511762Y910090D01*
X512143Y909900D01*
X512904D01*
X513285Y910090D01*
X513666Y910471D01*
X513857Y910852D01*
X517265Y913328D02*
X517075Y913709D01*
X516504Y913899D01*
X516123D01*
X515551Y913709D01*
X515170Y913137D01*
X514980Y912185D01*
Y911233D01*
X515170Y910471D01*
X515551Y910090D01*
X516123Y909900D01*
X516313D01*
X516885Y910090D01*
X517265Y910471D01*
X517456Y911043D01*
Y911233D01*
X517265Y911804D01*
X516885Y912185D01*
X516313Y912376D01*
X516123D01*
X515551Y912185D01*
X515170Y911804D01*
X514980Y911233D01*
X511400Y934099D02*
Y930100D01*
Y934099D02*
X513114D01*
X513685Y933909D01*
X513876Y933718D01*
X514066Y933337D01*
Y932957D01*
X513876Y932576D01*
X513685Y932385D01*
X513114Y932195D01*
X511400D01*
X512733D02*
X514066Y930100D01*
X516865Y934099D02*
X514961Y931433D01*
X517818D01*
X516865Y934099D02*
Y930100D01*
X520427Y934099D02*
X518522Y931433D01*
X521379D01*
X520427Y934099D02*
Y930100D01*
X528343Y917099D02*
X527962Y916909D01*
X527581Y916528D01*
X527390Y916147D01*
X527200Y915576D01*
Y914624D01*
X527390Y914052D01*
X527581Y913671D01*
X527962Y913290D01*
X528343Y913100D01*
X529104D01*
X529485Y913290D01*
X529866Y913671D01*
X530056Y914052D01*
X530247Y914624D01*
Y915576D01*
X530056Y916147D01*
X529866Y916528D01*
X529485Y916909D01*
X529104Y917099D01*
X528343D01*
X528914Y913862D02*
X530056Y912719D01*
X531370Y916147D02*
Y916337D01*
X531561Y916718D01*
X531751Y916909D01*
X532132Y917099D01*
X532894D01*
X533275Y916909D01*
X533465Y916718D01*
X533656Y916337D01*
Y915956D01*
X533465Y915576D01*
X533084Y915004D01*
X531180Y913100D01*
X533846D01*
X541300Y890199D02*
Y886200D01*
X543585D01*
X544404Y890199D02*
X546499D01*
X545356Y888676D01*
X545928D01*
X546308Y888485D01*
X546499Y888295D01*
X546689Y887724D01*
Y887343D01*
X546499Y886771D01*
X546118Y886390D01*
X545547Y886200D01*
X544975D01*
X544404Y886390D01*
X544214Y886581D01*
X544023Y886962D01*
X502156Y926547D02*
X501966Y926928D01*
X501585Y927309D01*
X501204Y927499D01*
X500443D01*
X500062Y927309D01*
X499681Y926928D01*
X499490Y926547D01*
X499300Y925976D01*
Y925023D01*
X499490Y924452D01*
X499681Y924071D01*
X500062Y923690D01*
X500443Y923500D01*
X501204D01*
X501585Y923690D01*
X501966Y924071D01*
X502156Y924452D01*
X505946Y927499D02*
X504042Y923500D01*
X503280Y927499D02*
X505946D01*
X486000Y918299D02*
Y915443D01*
X486190Y914871D01*
X486571Y914490D01*
X487143Y914300D01*
X487524D01*
X488095Y914490D01*
X488476Y914871D01*
X488666Y915443D01*
Y918299D01*
X490152D02*
X492246D01*
X491104Y916776D01*
X491675D01*
X492056Y916585D01*
X492246Y916395D01*
X492437Y915823D01*
Y915443D01*
X492246Y914871D01*
X491865Y914490D01*
X491294Y914300D01*
X490723D01*
X490152Y914490D01*
X489961Y914681D01*
X489771Y915062D01*
X476353Y926657D02*
X475972Y926466D01*
X475591Y926085D01*
X475401Y925704D01*
Y924943D01*
X475591Y924562D01*
X475972Y924181D01*
X476353Y923990D01*
X476924Y923800D01*
X477877D01*
X478448Y923990D01*
X478829Y924181D01*
X479210Y924562D01*
X479400Y924943D01*
Y925704D01*
X479210Y926085D01*
X478829Y926466D01*
X478448Y926657D01*
X475401Y928732D02*
X475591Y928161D01*
X475972Y927971D01*
X476353D01*
X476734Y928161D01*
X476924Y928542D01*
X477115Y929304D01*
X477305Y929875D01*
X477686Y930256D01*
X478067Y930446D01*
X478638D01*
X479019Y930256D01*
X479210Y930065D01*
X479400Y929494D01*
Y928732D01*
X479210Y928161D01*
X479019Y927971D01*
X478638Y927780D01*
X478067D01*
X477686Y927971D01*
X477305Y928351D01*
X477115Y928923D01*
X476924Y929684D01*
X476734Y930065D01*
X476353Y930256D01*
X475972D01*
X475591Y930065D01*
X475401Y929494D01*
Y928732D01*
X487856Y899347D02*
X487666Y899728D01*
X487285Y900109D01*
X486904Y900299D01*
X486143D01*
X485762Y900109D01*
X485381Y899728D01*
X485190Y899347D01*
X485000Y898776D01*
Y897824D01*
X485190Y897252D01*
X485381Y896871D01*
X485762Y896490D01*
X486143Y896300D01*
X486904D01*
X487285Y896490D01*
X487666Y896871D01*
X487856Y897252D01*
X489361Y900299D02*
X491456D01*
X490313Y898776D01*
X490884D01*
X491265Y898585D01*
X491456Y898395D01*
X491646Y897824D01*
Y897443D01*
X491456Y896871D01*
X491075Y896490D01*
X490504Y896300D01*
X489932D01*
X489361Y896490D01*
X489171Y896681D01*
X488980Y897062D01*
X492732Y899347D02*
Y899537D01*
X492922Y899918D01*
X493113Y900109D01*
X493493Y900299D01*
X494255D01*
X494636Y900109D01*
X494827Y899918D01*
X495017Y899537D01*
Y899156D01*
X494827Y898776D01*
X494446Y898204D01*
X492541Y896300D01*
X495207D01*
X474000Y906499D02*
Y902500D01*
Y906499D02*
X475714D01*
X476285Y906309D01*
X476476Y906118D01*
X476666Y905737D01*
Y905357D01*
X476476Y904976D01*
X476285Y904785D01*
X475714Y904595D01*
X474000D01*
X475333D02*
X476666Y902500D01*
X479465Y906499D02*
X477561Y903833D01*
X480418D01*
X479465Y906499D02*
Y902500D01*
X460353Y909556D02*
X459972Y909366D01*
X459591Y908985D01*
X459401Y908604D01*
Y907843D01*
X459591Y907462D01*
X459972Y907081D01*
X460353Y906890D01*
X460924Y906700D01*
X461876D01*
X462448Y906890D01*
X462829Y907081D01*
X463210Y907462D01*
X463400Y907843D01*
Y908604D01*
X463210Y908985D01*
X462829Y909366D01*
X462448Y909556D01*
X459401Y911061D02*
Y913156D01*
X460924Y912013D01*
Y912584D01*
X461115Y912965D01*
X461305Y913156D01*
X461876Y913346D01*
X462257D01*
X462829Y913156D01*
X463210Y912775D01*
X463400Y912204D01*
Y911632D01*
X463210Y911061D01*
X463019Y910870D01*
X462638Y910680D01*
X459401Y916527D02*
Y914622D01*
X461115Y914432D01*
X460924Y914622D01*
X460734Y915193D01*
Y915765D01*
X460924Y916336D01*
X461305Y916717D01*
X461876Y916907D01*
X462257D01*
X462829Y916717D01*
X463210Y916336D01*
X463400Y915765D01*
Y915193D01*
X463210Y914622D01*
X463019Y914432D01*
X462638Y914241D01*
X445656Y926547D02*
X445466Y926928D01*
X445085Y927309D01*
X444704Y927499D01*
X443943D01*
X443562Y927309D01*
X443181Y926928D01*
X442990Y926547D01*
X442800Y925976D01*
Y925023D01*
X442990Y924452D01*
X443181Y924071D01*
X443562Y923690D01*
X443943Y923500D01*
X444704D01*
X445085Y923690D01*
X445466Y924071D01*
X445656Y924452D01*
X447161Y927499D02*
X449256D01*
X448113Y925976D01*
X448685D01*
X449065Y925785D01*
X449256Y925595D01*
X449446Y925023D01*
Y924643D01*
X449256Y924071D01*
X448875Y923690D01*
X448304Y923500D01*
X447732D01*
X447161Y923690D01*
X446971Y923881D01*
X446780Y924262D01*
X452627Y926928D02*
X452436Y927309D01*
X451865Y927499D01*
X451484D01*
X450913Y927309D01*
X450532Y926737D01*
X450341Y925785D01*
Y924833D01*
X450532Y924071D01*
X450913Y923690D01*
X451484Y923500D01*
X451674D01*
X452246Y923690D01*
X452627Y924071D01*
X452817Y924643D01*
Y924833D01*
X452627Y925404D01*
X452246Y925785D01*
X451674Y925976D01*
X451484D01*
X450913Y925785D01*
X450532Y925404D01*
X450341Y924833D01*
X424353Y925856D02*
X423972Y925666D01*
X423591Y925285D01*
X423401Y924904D01*
Y924143D01*
X423591Y923762D01*
X423972Y923381D01*
X424353Y923190D01*
X424924Y923000D01*
X425877D01*
X426448Y923190D01*
X426829Y923381D01*
X427210Y923762D01*
X427400Y924143D01*
Y924904D01*
X427210Y925285D01*
X426829Y925666D01*
X426448Y925856D01*
X423401Y927361D02*
Y929456D01*
X424924Y928313D01*
Y928884D01*
X425115Y929265D01*
X425305Y929456D01*
X425877Y929646D01*
X426257D01*
X426829Y929456D01*
X427210Y929075D01*
X427400Y928504D01*
Y927932D01*
X427210Y927361D01*
X427019Y927170D01*
X426638Y926980D01*
X423401Y933207D02*
X427400Y931303D01*
X423401Y930541D02*
Y933207D01*
X433800Y917699D02*
Y914843D01*
X433990Y914271D01*
X434371Y913890D01*
X434943Y913700D01*
X435323D01*
X435895Y913890D01*
X436276Y914271D01*
X436466Y914843D01*
Y917699D01*
X437571Y916937D02*
X437952Y917128D01*
X438523Y917699D01*
Y913700D01*
X440503Y916937D02*
X440884Y917128D01*
X441456Y917699D01*
Y913700D01*
X447156Y906047D02*
X446966Y906428D01*
X446585Y906809D01*
X446204Y906999D01*
X445443D01*
X445062Y906809D01*
X444681Y906428D01*
X444490Y906047D01*
X444300Y905476D01*
Y904523D01*
X444490Y903952D01*
X444681Y903571D01*
X445062Y903190D01*
X445443Y903000D01*
X446204D01*
X446585Y903190D01*
X446966Y903571D01*
X447156Y903952D01*
X448661Y906999D02*
X450756D01*
X449613Y905476D01*
X450184D01*
X450565Y905285D01*
X450756Y905095D01*
X450946Y904523D01*
Y904143D01*
X450756Y903571D01*
X450375Y903190D01*
X449804Y903000D01*
X449232D01*
X448661Y903190D01*
X448470Y903381D01*
X448280Y903762D01*
X452793Y906999D02*
X452222Y906809D01*
X452032Y906428D01*
Y906047D01*
X452222Y905666D01*
X452603Y905476D01*
X453365Y905285D01*
X453936Y905095D01*
X454317Y904714D01*
X454507Y904333D01*
Y903762D01*
X454317Y903381D01*
X454127Y903190D01*
X453555Y903000D01*
X452793D01*
X452222Y903190D01*
X452032Y903381D01*
X451841Y903762D01*
Y904333D01*
X452032Y904714D01*
X452413Y905095D01*
X452984Y905285D01*
X453746Y905476D01*
X454127Y905666D01*
X454317Y906047D01*
Y906428D01*
X454127Y906809D01*
X453555Y906999D01*
X452793D01*
X436500Y899799D02*
Y895800D01*
Y899799D02*
X438214D01*
X438785Y899609D01*
X438976Y899418D01*
X439166Y899037D01*
Y898656D01*
X438976Y898276D01*
X438785Y898085D01*
X438214Y897895D01*
X436500D01*
X437833D02*
X439166Y895800D01*
X440061Y899037D02*
X440442Y899228D01*
X441013Y899799D01*
Y895800D01*
X443184Y898847D02*
Y899037D01*
X443375Y899418D01*
X443565Y899609D01*
X443946Y899799D01*
X444708D01*
X445089Y899609D01*
X445279Y899418D01*
X445470Y899037D01*
Y898656D01*
X445279Y898276D01*
X444898Y897704D01*
X442994Y895800D01*
X445660D01*
X459900Y864799D02*
Y861943D01*
X460090Y861371D01*
X460471Y860990D01*
X461043Y860800D01*
X461423D01*
X461995Y860990D01*
X462376Y861371D01*
X462566Y861943D01*
Y864799D01*
X465956Y864228D02*
X465765Y864609D01*
X465194Y864799D01*
X464813D01*
X464242Y864609D01*
X463861Y864037D01*
X463671Y863085D01*
Y862133D01*
X463861Y861371D01*
X464242Y860990D01*
X464813Y860800D01*
X465004D01*
X465575Y860990D01*
X465956Y861371D01*
X466146Y861943D01*
Y862133D01*
X465956Y862704D01*
X465575Y863085D01*
X465004Y863276D01*
X464813D01*
X464242Y863085D01*
X463861Y862704D01*
X463671Y862133D01*
X423301Y897000D02*
X427300D01*
X423301D02*
Y898714D01*
X423491Y899285D01*
X423682Y899476D01*
X424063Y899666D01*
X424443D01*
X424824Y899476D01*
X425015Y899285D01*
X425205Y898714D01*
Y897000D01*
Y898333D02*
X427300Y899666D01*
X424063Y900561D02*
X423872Y900942D01*
X423301Y901513D01*
X427300D01*
X423301Y903875D02*
Y905970D01*
X424824Y904827D01*
Y905398D01*
X425015Y905779D01*
X425205Y905970D01*
X425776Y906160D01*
X426157D01*
X426729Y905970D01*
X427110Y905589D01*
X427300Y905017D01*
Y904446D01*
X427110Y903875D01*
X426919Y903684D01*
X426538Y903494D01*
X407957Y912747D02*
X407766Y913128D01*
X407385Y913509D01*
X407004Y913699D01*
X406243D01*
X405862Y913509D01*
X405481Y913128D01*
X405290Y912747D01*
X405100Y912176D01*
Y911224D01*
X405290Y910652D01*
X405481Y910271D01*
X405862Y909890D01*
X406243Y909700D01*
X407004D01*
X407385Y909890D01*
X407766Y910271D01*
X407957Y910652D01*
X409270Y912747D02*
Y912937D01*
X409461Y913318D01*
X409651Y913509D01*
X410032Y913699D01*
X410794D01*
X411175Y913509D01*
X411365Y913318D01*
X411556Y912937D01*
Y912556D01*
X411365Y912176D01*
X410985Y911604D01*
X409080Y909700D01*
X411746D01*
X414546Y913699D02*
X412641Y911033D01*
X415498D01*
X414546Y913699D02*
Y909700D01*
X381000Y917699D02*
Y914843D01*
X381190Y914271D01*
X381571Y913890D01*
X382143Y913700D01*
X382523D01*
X383095Y913890D01*
X383476Y914271D01*
X383666Y914843D01*
Y917699D01*
X384771Y916937D02*
X385152Y917128D01*
X385723Y917699D01*
Y913700D01*
X388846Y917699D02*
X388275Y917509D01*
X387894Y916937D01*
X387703Y915985D01*
Y915414D01*
X387894Y914462D01*
X388275Y913890D01*
X388846Y913700D01*
X389227D01*
X389798Y913890D01*
X390179Y914462D01*
X390369Y915414D01*
Y915985D01*
X390179Y916937D01*
X389798Y917509D01*
X389227Y917699D01*
X388846D01*
X370256Y927147D02*
X370066Y927528D01*
X369685Y927909D01*
X369304Y928099D01*
X368543D01*
X368162Y927909D01*
X367781Y927528D01*
X367590Y927147D01*
X367400Y926576D01*
Y925624D01*
X367590Y925052D01*
X367781Y924671D01*
X368162Y924290D01*
X368543Y924100D01*
X369304D01*
X369685Y924290D01*
X370066Y924671D01*
X370256Y925052D01*
X371761Y928099D02*
X373856D01*
X372713Y926576D01*
X373285D01*
X373665Y926385D01*
X373856Y926195D01*
X374046Y925624D01*
Y925243D01*
X373856Y924671D01*
X373475Y924290D01*
X372904Y924100D01*
X372332D01*
X371761Y924290D01*
X371570Y924481D01*
X371380Y924862D01*
X375322Y928099D02*
X377417D01*
X376274Y926576D01*
X376846D01*
X377226Y926385D01*
X377417Y926195D01*
X377607Y925624D01*
Y925243D01*
X377417Y924671D01*
X377036Y924290D01*
X376465Y924100D01*
X375893D01*
X375322Y924290D01*
X375132Y924481D01*
X374941Y924862D01*
X407000Y893299D02*
Y889300D01*
Y893299D02*
X408714D01*
X409285Y893109D01*
X409476Y892918D01*
X409666Y892537D01*
Y892157D01*
X409476Y891776D01*
X409285Y891585D01*
X408714Y891395D01*
X407000D01*
X408333D02*
X409666Y889300D01*
X410561Y892537D02*
X410942Y892728D01*
X411513Y893299D01*
Y889300D01*
X413494Y892537D02*
X413875Y892728D01*
X414446Y893299D01*
Y889300D01*
X396653Y902157D02*
X396272Y901966D01*
X395891Y901585D01*
X395701Y901204D01*
Y900443D01*
X395891Y900062D01*
X396272Y899681D01*
X396653Y899490D01*
X397224Y899300D01*
X398177D01*
X398748Y899490D01*
X399129Y899681D01*
X399510Y900062D01*
X399700Y900443D01*
Y901204D01*
X399510Y901585D01*
X399129Y901966D01*
X398748Y902157D01*
X395701Y903661D02*
Y905756D01*
X397224Y904613D01*
Y905184D01*
X397415Y905565D01*
X397605Y905756D01*
X398177Y905946D01*
X398557D01*
X399129Y905756D01*
X399510Y905375D01*
X399700Y904804D01*
Y904232D01*
X399510Y903661D01*
X399319Y903471D01*
X398938Y903280D01*
X396463Y906841D02*
X396272Y907222D01*
X395701Y907793D01*
X399700D01*
X383857Y899447D02*
X383666Y899828D01*
X383285Y900209D01*
X382904Y900399D01*
X382143D01*
X381762Y900209D01*
X381381Y899828D01*
X381190Y899447D01*
X381000Y898876D01*
Y897923D01*
X381190Y897352D01*
X381381Y896971D01*
X381762Y896590D01*
X382143Y896400D01*
X382904D01*
X383285Y896590D01*
X383666Y896971D01*
X383857Y897352D01*
X385361Y900399D02*
X387456D01*
X386313Y898876D01*
X386884D01*
X387265Y898685D01*
X387456Y898495D01*
X387646Y897923D01*
Y897543D01*
X387456Y896971D01*
X387075Y896590D01*
X386504Y896400D01*
X385932D01*
X385361Y896590D01*
X385171Y896781D01*
X384980Y897162D01*
X390446Y900399D02*
X388541Y897733D01*
X391398D01*
X390446Y900399D02*
Y896400D01*
X371401Y899100D02*
X375400D01*
X371401D02*
Y900814D01*
X371591Y901385D01*
X371782Y901576D01*
X372163Y901766D01*
X372544D01*
X372924Y901576D01*
X373115Y901385D01*
X373305Y900814D01*
Y899100D01*
Y900433D02*
X375400Y901766D01*
X371401Y903042D02*
Y905137D01*
X372924Y903994D01*
Y904566D01*
X373115Y904946D01*
X373305Y905137D01*
X373877Y905327D01*
X374257D01*
X374829Y905137D01*
X375210Y904756D01*
X375400Y904185D01*
Y903613D01*
X375210Y903042D01*
X375019Y902852D01*
X374638Y902661D01*
X371401Y908508D02*
Y906603D01*
X373115Y906413D01*
X372924Y906603D01*
X372734Y907174D01*
Y907746D01*
X372924Y908317D01*
X373305Y908698D01*
X373877Y908888D01*
X374257D01*
X374829Y908698D01*
X375210Y908317D01*
X375400Y907746D01*
Y907174D01*
X375210Y906603D01*
X375019Y906413D01*
X374638Y906222D01*
X397647Y1017800D02*
X396124Y1021799D01*
X394600Y1017800D01*
X395171Y1019133D02*
X397076D01*
X398580Y1021799D02*
Y1017800D01*
Y1021799D02*
X401246Y1017800D01*
Y1021799D02*
Y1017800D01*
X403684Y1021799D02*
Y1017800D01*
X402351Y1021799D02*
X405017D01*
X405683Y1020847D02*
Y1021037D01*
X405874Y1021418D01*
X406064Y1021609D01*
X406445Y1021799D01*
X407207D01*
X407588Y1021609D01*
X407778Y1021418D01*
X407969Y1021037D01*
Y1020656D01*
X407778Y1020276D01*
X407397Y1019704D01*
X405493Y1017800D01*
X408159D01*
X423500Y963199D02*
Y960343D01*
X423690Y959771D01*
X424071Y959390D01*
X424643Y959200D01*
X425024D01*
X425595Y959390D01*
X425976Y959771D01*
X426166Y960343D01*
Y963199D01*
X429556D02*
X427652D01*
X427461Y961485D01*
X427652Y961676D01*
X428223Y961866D01*
X428794D01*
X429365Y961676D01*
X429746Y961295D01*
X429937Y960723D01*
Y960343D01*
X429746Y959771D01*
X429365Y959390D01*
X428794Y959200D01*
X428223D01*
X427652Y959390D01*
X427461Y959581D01*
X427271Y959962D01*
X329953Y988457D02*
X329572Y988266D01*
X329191Y987885D01*
X329001Y987504D01*
Y986743D01*
X329191Y986362D01*
X329572Y985981D01*
X329953Y985790D01*
X330524Y985600D01*
X331476D01*
X332048Y985790D01*
X332429Y985981D01*
X332810Y986362D01*
X333000Y986743D01*
Y987504D01*
X332810Y987885D01*
X332429Y988266D01*
X332048Y988457D01*
X330334Y992056D02*
X330905Y991865D01*
X331286Y991484D01*
X331476Y990913D01*
Y990723D01*
X331286Y990151D01*
X330905Y989771D01*
X330334Y989580D01*
X330143D01*
X329572Y989771D01*
X329191Y990151D01*
X329001Y990723D01*
Y990913D01*
X329191Y991484D01*
X329572Y991865D01*
X330334Y992056D01*
X331286D01*
X332238Y991865D01*
X332810Y991484D01*
X333000Y990913D01*
Y990532D01*
X332810Y989961D01*
X332429Y989771D01*
X348856Y978847D02*
X348666Y979228D01*
X348285Y979609D01*
X347904Y979799D01*
X347143D01*
X346762Y979609D01*
X346381Y979228D01*
X346190Y978847D01*
X346000Y978276D01*
Y977324D01*
X346190Y976752D01*
X346381Y976371D01*
X346762Y975990D01*
X347143Y975800D01*
X347904D01*
X348285Y975990D01*
X348666Y976371D01*
X348856Y976752D01*
X349980Y979037D02*
X350361Y979228D01*
X350932Y979799D01*
Y975800D01*
X352913Y979037D02*
X353294Y979228D01*
X353865Y979799D01*
Y975800D01*
X363956Y978447D02*
X363766Y978828D01*
X363385Y979209D01*
X363004Y979399D01*
X362243D01*
X361862Y979209D01*
X361481Y978828D01*
X361290Y978447D01*
X361100Y977876D01*
Y976923D01*
X361290Y976352D01*
X361481Y975971D01*
X361862Y975590D01*
X362243Y975400D01*
X363004D01*
X363385Y975590D01*
X363766Y975971D01*
X363956Y976352D01*
X365080Y978637D02*
X365461Y978828D01*
X366032Y979399D01*
Y975400D01*
X369155Y979399D02*
X368584Y979209D01*
X368203Y978637D01*
X368013Y977685D01*
Y977114D01*
X368203Y976162D01*
X368584Y975590D01*
X369155Y975400D01*
X369536D01*
X370108Y975590D01*
X370489Y976162D01*
X370679Y977114D01*
Y977685D01*
X370489Y978637D01*
X370108Y979209D01*
X369536Y979399D01*
X369155D01*
X362200Y956599D02*
Y952600D01*
Y956599D02*
X363914D01*
X364485Y956409D01*
X364676Y956218D01*
X364866Y955837D01*
Y955457D01*
X364676Y955076D01*
X364485Y954885D01*
X363914Y954695D01*
X362200D01*
X363533D02*
X364866Y952600D01*
X368427Y956599D02*
X366523Y952600D01*
X365761Y956599D02*
X368427D01*
X345800D02*
Y952600D01*
X348085D01*
X350999Y956599D02*
X348523D01*
Y952600D01*
X350999D01*
X348523Y954695D02*
X350047D01*
X351665Y956599D02*
Y952600D01*
Y956599D02*
X352998D01*
X353570Y956409D01*
X353951Y956028D01*
X354141Y955647D01*
X354331Y955076D01*
Y954123D01*
X354141Y953552D01*
X353951Y953171D01*
X353570Y952790D01*
X352998Y952600D01*
X351665D01*
X355226Y955837D02*
X355607Y956028D01*
X356179Y956599D01*
Y952600D01*
X361900Y949599D02*
Y945600D01*
Y949599D02*
X363614D01*
X364185Y949409D01*
X364376Y949218D01*
X364566Y948837D01*
Y948456D01*
X364376Y948076D01*
X364185Y947885D01*
X363614Y947695D01*
X361900D01*
X363233D02*
X364566Y945600D01*
X365842Y949599D02*
X367937D01*
X366794Y948076D01*
X367366D01*
X367746Y947885D01*
X367937Y947695D01*
X368127Y947124D01*
Y946743D01*
X367937Y946171D01*
X367556Y945790D01*
X366985Y945600D01*
X366413D01*
X365842Y945790D01*
X365652Y945981D01*
X365461Y946362D01*
X371498Y948266D02*
X371307Y947695D01*
X370927Y947314D01*
X370355Y947124D01*
X370165D01*
X369594Y947314D01*
X369213Y947695D01*
X369022Y948266D01*
Y948456D01*
X369213Y949028D01*
X369594Y949409D01*
X370165Y949599D01*
X370355D01*
X370927Y949409D01*
X371307Y949028D01*
X371498Y948266D01*
Y947314D01*
X371307Y946362D01*
X370927Y945790D01*
X370355Y945600D01*
X369974D01*
X369403Y945790D01*
X369213Y946171D01*
X367901Y933100D02*
X371900D01*
X367901D02*
Y934814D01*
X368091Y935385D01*
X368282Y935576D01*
X368663Y935766D01*
X369043D01*
X369424Y935576D01*
X369615Y935385D01*
X369805Y934814D01*
Y933100D01*
Y934433D02*
X371900Y935766D01*
X367901Y938566D02*
X370567Y936661D01*
Y939518D01*
X367901Y938566D02*
X371900D01*
X367901Y941365D02*
X368091Y940794D01*
X368663Y940413D01*
X369615Y940222D01*
X370186D01*
X371138Y940413D01*
X371710Y940794D01*
X371900Y941365D01*
Y941746D01*
X371710Y942317D01*
X371138Y942698D01*
X370186Y942888D01*
X369615D01*
X368663Y942698D01*
X368091Y942317D01*
X367901Y941746D01*
Y941365D01*
X345900Y930999D02*
Y927000D01*
X348185D01*
X351099Y930999D02*
X348623D01*
Y927000D01*
X351099D01*
X348623Y929095D02*
X350147D01*
X351765Y930999D02*
Y927000D01*
Y930999D02*
X353099D01*
X353670Y930809D01*
X354051Y930428D01*
X354241Y930047D01*
X354432Y929476D01*
Y928524D01*
X354241Y927952D01*
X354051Y927571D01*
X353670Y927190D01*
X353099Y927000D01*
X351765D01*
X355707Y930999D02*
X357802D01*
X356660Y929476D01*
X357231D01*
X357612Y929285D01*
X357802Y929095D01*
X357993Y928524D01*
Y928143D01*
X357802Y927571D01*
X357421Y927190D01*
X356850Y927000D01*
X356279D01*
X355707Y927190D01*
X355517Y927381D01*
X355327Y927762D01*
X346700Y943799D02*
Y939800D01*
Y943799D02*
X348414D01*
X348985Y943609D01*
X349176Y943418D01*
X349366Y943037D01*
Y942657D01*
X349176Y942276D01*
X348985Y942085D01*
X348414Y941895D01*
X346700D01*
X348033D02*
X349366Y939800D01*
X350642Y943799D02*
X352737D01*
X351594Y942276D01*
X352166D01*
X352546Y942085D01*
X352737Y941895D01*
X352927Y941323D01*
Y940943D01*
X352737Y940371D01*
X352356Y939990D01*
X351785Y939800D01*
X351213D01*
X350642Y939990D01*
X350452Y940181D01*
X350261Y940562D01*
X356107Y943228D02*
X355917Y943609D01*
X355346Y943799D01*
X354965D01*
X354394Y943609D01*
X354013Y943037D01*
X353822Y942085D01*
Y941133D01*
X354013Y940371D01*
X354394Y939990D01*
X354965Y939800D01*
X355155D01*
X355727Y939990D01*
X356107Y940371D01*
X356298Y940943D01*
Y941133D01*
X356107Y941704D01*
X355727Y942085D01*
X355155Y942276D01*
X354965D01*
X354394Y942085D01*
X354013Y941704D01*
X353822Y941133D01*
X320901Y934000D02*
X324900D01*
X320901D02*
Y935714D01*
X321091Y936285D01*
X321282Y936476D01*
X321663Y936666D01*
X322043D01*
X322424Y936476D01*
X322615Y936285D01*
X322805Y935714D01*
Y934000D01*
Y935333D02*
X324900Y936666D01*
X321853Y937752D02*
X321663D01*
X321282Y937942D01*
X321091Y938132D01*
X320901Y938513D01*
Y939275D01*
X321091Y939656D01*
X321282Y939846D01*
X321663Y940037D01*
X322043D01*
X322424Y939846D01*
X322996Y939466D01*
X324900Y937561D01*
Y940227D01*
X320901Y943408D02*
Y941503D01*
X322615Y941313D01*
X322424Y941503D01*
X322234Y942074D01*
Y942646D01*
X322424Y943217D01*
X322805Y943598D01*
X323376Y943788D01*
X323757D01*
X324329Y943598D01*
X324710Y943217D01*
X324900Y942646D01*
Y942074D01*
X324710Y941503D01*
X324519Y941313D01*
X324138Y941122D01*
X328600Y937499D02*
Y933500D01*
Y937499D02*
X330314D01*
X330885Y937309D01*
X331076Y937118D01*
X331266Y936737D01*
Y936357D01*
X331076Y935976D01*
X330885Y935785D01*
X330314Y935595D01*
X328600D01*
X329933D02*
X331266Y933500D01*
X332352Y936547D02*
Y936737D01*
X332542Y937118D01*
X332733Y937309D01*
X333113Y937499D01*
X333875D01*
X334256Y937309D01*
X334446Y937118D01*
X334637Y936737D01*
Y936357D01*
X334446Y935976D01*
X334066Y935404D01*
X332161Y933500D01*
X334827D01*
X335913Y936547D02*
Y936737D01*
X336103Y937118D01*
X336294Y937309D01*
X336674Y937499D01*
X337436D01*
X337817Y937309D01*
X338007Y937118D01*
X338198Y936737D01*
Y936357D01*
X338007Y935976D01*
X337627Y935404D01*
X335722Y933500D01*
X338388D01*
X328300Y943699D02*
Y939700D01*
Y943699D02*
X330014D01*
X330585Y943509D01*
X330776Y943318D01*
X330966Y942937D01*
Y942556D01*
X330776Y942176D01*
X330585Y941985D01*
X330014Y941795D01*
X328300D01*
X329633D02*
X330966Y939700D01*
X332052Y942747D02*
Y942937D01*
X332242Y943318D01*
X332433Y943509D01*
X332813Y943699D01*
X333575D01*
X333956Y943509D01*
X334146Y943318D01*
X334337Y942937D01*
Y942556D01*
X334146Y942176D01*
X333766Y941604D01*
X331861Y939700D01*
X334527D01*
X335803Y943699D02*
X337898D01*
X336755Y942176D01*
X337327D01*
X337707Y941985D01*
X337898Y941795D01*
X338088Y941224D01*
Y940843D01*
X337898Y940271D01*
X337517Y939890D01*
X336946Y939700D01*
X336374D01*
X335803Y939890D01*
X335613Y940081D01*
X335422Y940462D01*
X325866Y868028D02*
X325485Y868409D01*
X324914Y868599D01*
X324152D01*
X323581Y868409D01*
X323200Y868028D01*
Y867647D01*
X323390Y867266D01*
X323581Y867076D01*
X323962Y866885D01*
X325104Y866504D01*
X325485Y866314D01*
X325676Y866123D01*
X325866Y865743D01*
Y865171D01*
X325485Y864790D01*
X324914Y864600D01*
X324152D01*
X323581Y864790D01*
X323200Y865171D01*
X326761Y868599D02*
Y864600D01*
X327599Y868599D02*
Y864600D01*
Y868599D02*
X329122Y864600D01*
X330646Y868599D02*
X329122Y864600D01*
X330646Y868599D02*
Y864600D01*
X331789Y867837D02*
X332170Y868028D01*
X332741Y868599D01*
Y864600D01*
X327800Y913204D02*
X329514D01*
X330085Y913395D01*
X330276Y913585D01*
X330466Y913966D01*
Y914537D01*
X330276Y914918D01*
X330085Y915109D01*
X329514Y915299D01*
X327800D01*
Y911300D01*
X331552Y914347D02*
Y914537D01*
X331742Y914918D01*
X331932Y915109D01*
X332313Y915299D01*
X333075D01*
X333456Y915109D01*
X333646Y914918D01*
X333837Y914537D01*
Y914157D01*
X333646Y913776D01*
X333265Y913204D01*
X331361Y911300D01*
X334027D01*
X325500Y953304D02*
X327214D01*
X327785Y953495D01*
X327976Y953685D01*
X328166Y954066D01*
Y954637D01*
X327976Y955018D01*
X327785Y955209D01*
X327214Y955399D01*
X325500D01*
Y951400D01*
X329442Y955399D02*
X331537D01*
X330394Y953876D01*
X330965D01*
X331346Y953685D01*
X331537Y953495D01*
X331727Y952923D01*
Y952543D01*
X331537Y951971D01*
X331156Y951590D01*
X330585Y951400D01*
X330013D01*
X329442Y951590D01*
X329252Y951781D01*
X329061Y952162D01*
X419356Y836347D02*
X419166Y836728D01*
X418785Y837109D01*
X418404Y837299D01*
X417643D01*
X417262Y837109D01*
X416881Y836728D01*
X416690Y836347D01*
X416500Y835776D01*
Y834824D01*
X416690Y834252D01*
X416881Y833871D01*
X417262Y833490D01*
X417643Y833300D01*
X418404D01*
X418785Y833490D01*
X419166Y833871D01*
X419356Y834252D01*
X420480Y836537D02*
X420861Y836728D01*
X421432Y837299D01*
Y833300D01*
X423794Y837299D02*
X425888D01*
X424746Y835776D01*
X425317D01*
X425698Y835585D01*
X425888Y835395D01*
X426079Y834824D01*
Y834443D01*
X425888Y833871D01*
X425508Y833490D01*
X424936Y833300D01*
X424365D01*
X423794Y833490D01*
X423603Y833681D01*
X423413Y834062D01*
X419557Y872747D02*
X419366Y873128D01*
X418985Y873509D01*
X418604Y873699D01*
X417843D01*
X417462Y873509D01*
X417081Y873128D01*
X416890Y872747D01*
X416700Y872176D01*
Y871224D01*
X416890Y870652D01*
X417081Y870271D01*
X417462Y869890D01*
X417843Y869700D01*
X418604D01*
X418985Y869890D01*
X419366Y870271D01*
X419557Y870652D01*
X420680Y872937D02*
X421061Y873128D01*
X421632Y873699D01*
Y869700D01*
X425517Y873699D02*
X423613Y871033D01*
X426469D01*
X425517Y873699D02*
Y869700D01*
X326643Y981699D02*
X326262Y981509D01*
X325881Y981128D01*
X325690Y980747D01*
X325500Y980176D01*
Y979224D01*
X325690Y978652D01*
X325881Y978271D01*
X326262Y977890D01*
X326643Y977700D01*
X327404D01*
X327785Y977890D01*
X328166Y978271D01*
X328357Y978652D01*
X328547Y979224D01*
Y980176D01*
X328357Y980747D01*
X328166Y981128D01*
X327785Y981509D01*
X327404Y981699D01*
X326643D01*
X327214Y978462D02*
X328357Y977319D01*
X329480Y980937D02*
X329861Y981128D01*
X330432Y981699D01*
Y977700D01*
X324900Y967899D02*
Y963900D01*
Y967899D02*
X326614D01*
X327185Y967709D01*
X327376Y967518D01*
X327566Y967137D01*
Y966757D01*
X327376Y966376D01*
X327185Y966185D01*
X326614Y965995D01*
X324900D01*
X326233D02*
X327566Y963900D01*
X330746Y967328D02*
X330556Y967709D01*
X329985Y967899D01*
X329604D01*
X329032Y967709D01*
X328652Y967137D01*
X328461Y966185D01*
Y965233D01*
X328652Y964471D01*
X329032Y964090D01*
X329604Y963900D01*
X329794D01*
X330365Y964090D01*
X330746Y964471D01*
X330937Y965043D01*
Y965233D01*
X330746Y965804D01*
X330365Y966185D01*
X329794Y966376D01*
X329604D01*
X329032Y966185D01*
X328652Y965804D01*
X328461Y965233D01*
X351500Y916399D02*
Y913543D01*
X351690Y912971D01*
X352071Y912590D01*
X352643Y912400D01*
X353024D01*
X353595Y912590D01*
X353976Y912971D01*
X354166Y913543D01*
Y916399D01*
X357937D02*
X356032Y912400D01*
X355271Y916399D02*
X357937D01*
X539300Y964399D02*
X540824Y960400D01*
X542347Y964399D02*
X540824Y960400D01*
X543052Y963447D02*
Y963637D01*
X543242Y964018D01*
X543432Y964209D01*
X543813Y964399D01*
X544575D01*
X544956Y964209D01*
X545146Y964018D01*
X545337Y963637D01*
Y963256D01*
X545146Y962876D01*
X544766Y962304D01*
X542861Y960400D01*
X545527D01*
X539300Y996299D02*
X540824Y992300D01*
X542347Y996299D02*
X540824Y992300D01*
X543242Y996299D02*
X545337D01*
X544194Y994776D01*
X544766D01*
X545146Y994585D01*
X545337Y994395D01*
X545527Y993824D01*
Y993443D01*
X545337Y992871D01*
X544956Y992490D01*
X544385Y992300D01*
X543813D01*
X543242Y992490D01*
X543052Y992681D01*
X542861Y993062D01*
X581300Y995804D02*
X583014D01*
X583585Y995995D01*
X583776Y996185D01*
X583966Y996566D01*
Y997137D01*
X583776Y997518D01*
X583585Y997709D01*
X583014Y997899D01*
X581300D01*
Y993900D01*
X587146Y997328D02*
X586956Y997709D01*
X586385Y997899D01*
X586004D01*
X585432Y997709D01*
X585052Y997137D01*
X584861Y996185D01*
Y995233D01*
X585052Y994471D01*
X585432Y994090D01*
X586004Y993900D01*
X586194D01*
X586765Y994090D01*
X587146Y994471D01*
X587337Y995043D01*
Y995233D01*
X587146Y995804D01*
X586765Y996185D01*
X586194Y996376D01*
X586004D01*
X585432Y996185D01*
X585052Y995804D01*
X584861Y995233D01*
D22*
X359999Y857299D02*
X359500Y857799D01*
X358500D01*
X358000Y857299D01*
Y855300D01*
X358500Y854800D01*
X359500D01*
X359999Y855300D01*
X360999Y857799D02*
Y854800D01*
X362998D01*
X363998Y857799D02*
Y854800D01*
Y855800D01*
X365997Y857799D01*
X364498Y856299D01*
X365997Y854800D01*
X358000Y864800D02*
Y867799D01*
X359500D01*
X359999Y867299D01*
Y866300D01*
X359500Y865800D01*
X358000D01*
X359000D02*
X359999Y864800D01*
X362998Y867299D02*
X362498Y867799D01*
X361499D01*
X360999Y867299D01*
Y866799D01*
X361499Y866300D01*
X362498D01*
X362998Y865800D01*
Y865300D01*
X362498Y864800D01*
X361499D01*
X360999Y865300D01*
X363998Y867799D02*
X365997D01*
X364998D01*
Y864800D01*
X358000Y877799D02*
Y875800D01*
X359000Y874800D01*
X359999Y875800D01*
Y877799D01*
X362998Y877299D02*
X362498Y877799D01*
X361499D01*
X360999Y877299D01*
Y875300D01*
X361499Y874800D01*
X362498D01*
X362998Y875300D01*
X365997Y877299D02*
X365498Y877799D01*
X364498D01*
X363998Y877299D01*
Y875300D01*
X364498Y874800D01*
X365498D01*
X365997Y875300D01*
X337399Y875399D02*
X336899Y875899D01*
X335900D01*
X335400Y875399D01*
Y873400D01*
X335900Y872900D01*
X336899D01*
X337399Y873400D01*
Y874399D01*
X336400D01*
X338399Y872900D02*
Y875899D01*
X340398Y872900D01*
Y875899D01*
X341398D02*
Y872900D01*
X342898D01*
X343397Y873400D01*
Y875399D01*
X342898Y875899D01*
X341398D01*
X335400Y865899D02*
Y863900D01*
X336400Y862900D01*
X337399Y863900D01*
Y865899D01*
X338399Y862900D02*
Y865899D01*
X339898D01*
X340398Y865399D01*
Y864400D01*
X339898Y863900D01*
X338399D01*
X341398Y862900D02*
Y865899D01*
X342898D01*
X343397Y865399D01*
Y864400D01*
X342898Y863900D01*
X341398D01*
X335400Y855899D02*
Y852900D01*
X336899D01*
X337399Y853400D01*
Y855399D01*
X336899Y855899D01*
X335400D01*
X338399Y852900D02*
Y854899D01*
X339399Y855899D01*
X340398Y854899D01*
Y852900D01*
Y854399D01*
X338399D01*
X341398Y855899D02*
X343397D01*
X342398D01*
Y852900D01*
D23*
X500566Y967035D02*
D03*
D24*
X400950Y989296D02*
D03*
D25*
X370850Y867850D02*
D03*
D26*
X353550Y878800D02*
D03*
X353550Y868800D02*
D03*
X353650Y858800D02*
D03*
X338751Y858800D02*
D03*
X338650Y868799D02*
D03*
X338650Y878800D02*
D03*
D27*
X351000Y783700D02*
D03*
M02*
